wght100_wdth125.ufo
<glyph name="zero" format="2">
	<unicode hex="0030"/>
	<advance width="1171"/>
	<outline>
		<contour>
			<point x="79.359375" y="878.9951171875" type="qcurve" smooth="yes"/>
			<point x="119.0886230469" y="1179.1982421875"/>
			<point x="457.4653320312" y="1579.5520019531"/>
			<point x="681.8330078125" y="1532.990234375" type="qcurve" smooth="yes"/>
			<point x="893.5485839844" y="1486.4284667969"/>
			<point x="1120.9543457031" y="972.3635253906"/>
			<point x="1070.7868652344" y="654.3098144531" type="qcurve" smooth="yes"/>
			<point x="1023.1811523438" y="328.2521972656"/>
			<point x="687.3056640625" y="-56.5617675781"/>
			<point x="485.7358398438" y="-18" type="qcurve" smooth="yes"/>
			<point x="249.4245605469" y="24.5617675781"/>
			<point x="32.6977539062" y="539.7202148438"/>
		</contour>
		<contour>
			<point x="260.3540039062" y="868.9951171875" type="qcurve" smooth="yes"/>
			<point x="222.8426513672" y="571.4927978516"/>
			<point x="337.6752929688" y="131.001953125"/>
			<point x="488.4565429688" y="94.001953125" type="qcurve" smooth="yes"/>
			<point x="654.9877929688" y="55.001953125"/>
			<point x="840.3371582031" y="370.9569702148"/>
			<point x="881.3540039062" y="674.9951171875" type="qcurve" smooth="yes"/>
			<point x="923.5440063477" y="971.4979248047"/>
			<point x="810.1938476562" y="1374.1804199219"/>
			<point x="655.5063476562" y="1412.1804199219" type="qcurve" smooth="yes"/>
			<point x="502.6938476562" y="1451.1804199219"/>
			<point x="297.7939453125" y="1157.0332641602"/>
		</contour>
	</outline>
</glyph>
<glyph name="one" format="2">
	<unicode hex="0031"/>
	<advance width="535"/>
	<outline>
		<contour>
			<point x="-60.3464355469" y="5.9616699219" type="line"/>
			<point x="-44.2751464844" y="60.3100585938"/>
			<point x="-20.9318847656" y="169.396484375"/>
			<point x="-2.9035644531" y="277.2177734375" type="qcurve" smooth="yes"/>
			<point x="132.8806152344" y="1064.9653320312" type="line"/>
			<point x="167.2299804688" y="1323.8117675781" type="line"/>
			<point x="116.3129882812" y="1299.9904785156" type="line"/>
			<point x="71.0815429688" y="1408.876953125" type="line"/>
			<point x="338.2736816406" y="1557.876953125" type="line"/>
			<point x="379.7360839844" y="1510.9147949219" type="line"/>
			<point x="367.4931640625" y="1477.7028808594"/>
			<point x="351.4301757812" y="1353.7111816406"/>
			<point x="348.3171386719" y="1330.9094238281" type="qcurve" smooth="yes"/>
			<point x="250.1538085938" y="725.68359375" type="line"/>
			<point x="175.7836914062" y="142.6838378906" type="line"/>
			<point x="5.6162109375" y="-34.8850097656" type="line"/>
		</contour>
	</outline>
</glyph>
<glyph name="two" format="2">
	<unicode hex="0032"/>
	<advance width="986"/>
	<outline>
		<contour>
			<point x="-13.5285644531" y="-8.66015625" type="qcurve"/>
			<point x="-67.2717285156" y="67.8081054688" type="line"/>
			<point x="68.7702636719" y="205.2507324219" type="line" smooth="yes"/>
			<point x="398.9489746094" y="577.1066894531"/>
			<point x="616.9946289062" y="1006.904296875"/>
			<point x="639.4470214844" y="1190.7529296875" type="qcurve" smooth="yes"/>
			<point x="652.9389648438" y="1257.9328613281"/>
			<point x="569.6916503906" y="1395.3256835938"/>
			<point x="457.6989746094" y="1395.3256835938" type="qcurve" smooth="yes"/>
			<point x="381.4086914062" y="1395.3256835938"/>
			<point x="189.9377441406" y="1325.5764160156"/>
			<point x="143.1179199219" y="1250.9089355469" type="qcurve"/>
			<point x="65.2177734375" y="1330.9162597656" type="line"/>
			<point x="132.5861816406" y="1407.0048828125"/>
			<point x="403.0661621094" y="1542.1318359375"/>
			<point x="541.2644042969" y="1542.1318359375" type="qcurve" smooth="yes"/>
			<point x="705.1970214844" y="1542.1318359375"/>
			<point x="892.4235839844" y="1350.2255859375"/>
			<point x="876.4235839844" y="1202.0590820312" type="qcurve" smooth="yes"/>
			<point x="852.4235839844" y="963.2651367188"/>
			<point x="357.3692626953" y="378.9505615234"/>
			<point x="222.9354248047" y="253.1751708984" type="qcurve"/>
			<point x="216.5517578125" y="263.6166992188" type="line"/>
			<point x="208.0198974609" y="249.9017333984"/>
			<point x="96.5646972656" y="242.1383056641"/>
			<point x="90.4526367188" y="248.7727050781" type="qcurve"/>
			<point x="232.9389648438" y="223.6315917969"/>
			<point x="450.7517089844" y="188.7197265625"/>
			<point x="582.0622558594" y="166.3234863281" type="qcurve"/>
			<point x="737.9560546875" y="376.5300292969" type="line"/>
			<point x="815.1354980469" y="361.16796875" type="line"/>
			<point x="668.2814941406" y="-31.8520507812" type="line"/>
			<point x="556.3068847656" y="7.7504882812"/>
			<point x="211.9387207031" y="84.5388183594"/>
			<point x="56.7829589844" y="81.9487304688" type="qcurve" smooth="yes"/>
			<point x="-29.740234375" y="80.3728027344"/>
			<point x="24.5422363281" y="35.6513671875"/>
		</contour>
	</outline>
</glyph>
<glyph name="three" format="2">
	<unicode hex="0033"/>
	<advance width="1042"/>
	<outline>
		<contour>
			<point x="-20.9912109375" y="173.39453125" type="qcurve"/>
			<point x="-19.9912109375" y="242.4440917969"/>
			<point x="65.9501953125" y="362.7229003906"/>
			<point x="157.65625" y="366.5434570312" type="qcurve"/>
			<point x="192.2739257812" y="363.7873535156" type="line"/>
			<point x="175.3974609375" y="323.7165527344"/>
			<point x="160.6596679688" y="263.9377441406"/>
			<point x="162.0827636719" y="229.8386230469" type="qcurve" smooth="yes"/>
			<point x="170.0827636719" y="136.2629394531"/>
			<point x="254.79296875" y="91.1069335938"/>
			<point x="359.2204589844" y="91.1069335938" type="qcurve" smooth="yes"/>
			<point x="511.6806640625" y="91.1069335938"/>
			<point x="689.6176757812" y="328.5334472656"/>
			<point x="692.0559082031" y="483.1071777344" type="qcurve" smooth="yes"/>
			<point x="696.6176757812" y="615.0517578125"/>
			<point x="528.8803710938" y="780.7861328125"/>
			<point x="411.0578613281" y="790.9631347656" type="qcurve" smooth="yes"/>
			<point x="336.2490234375" y="794.734375" type="line"/>
			<point x="349.6337890625" y="890.7116699219" type="line"/>
			<point x="403.6337890625" y="893.4565429688" type="line" smooth="yes"/>
			<point x="551.6337890625" y="902.2680664062"/>
			<point x="741.3784179688" y="1097.7136230469"/>
			<point x="744.3784179688" y="1232.4375" type="qcurve" smooth="yes"/>
			<point x="746.3784179688" y="1326.7250976562"/>
			<point x="682.6926269531" y="1403.4106445312"/>
			<point x="590.2685546875" y="1403.4106445312" type="qcurve" smooth="yes"/>
			<point x="529.4597167969" y="1403.4106445312"/>
			<point x="340.9558105469" y="1334.7321777344"/>
			<point x="280.4177246094" y="1265.3688964844" type="qcurve"/>
			<point x="203.5219726562" y="1347.0361328125" type="line"/>
			<point x="279.2426757812" y="1430.6245117188"/>
			<point x="498.0971679688" y="1536.7360839844"/>
			<point x="630.2421875" y="1536.7360839844" type="qcurve" smooth="yes"/>
			<point x="781.1494140625" y="1536.7360839844"/>
			<point x="935.4965820312" y="1415.0046386719"/>
			<point x="932.4965820312" y="1249.9890136719" type="qcurve" smooth="yes"/>
			<point x="930.4965820312" y="1103.5534667969"/>
			<point x="777.5654296875" y="896.767578125"/>
			<point x="650.3625488281" y="865.3891601562" type="qcurve"/>
			<point x="649.3625488281" y="859.3325195312" type="line"/>
			<point x="735.1389160156" y="839.0114746094"/>
			<point x="889.7358398438" y="654.9802246094"/>
			<point x="886.7358398438" y="491.248046875" type="qcurve" smooth="yes"/>
			<point x="883.7358398438" y="305.4584960938"/>
			<point x="597.2846679688" y="-18"/>
			<point x="323.4162597656" y="-18" type="qcurve" smooth="yes"/>
			<point x="156.8688964844" y="-18"/>
			<point x="-21.9912109375" y="77.8635253906"/>
		</contour>
	</outline>
</glyph>
<glyph name="four" format="2">
	<unicode hex="0034"/>
	<advance width="843"/>
	<outline>
		<contour>
			<point x="11.0458984375" y="451.8139648438" type="line"/>
			<point x="11.8920898438" y="532.73828125" type="line"/>
			<point x="816.548828125" y="1555.763671875" type="line"/>
			<point x="908.8725585938" y="1507.1018066406" type="line"/>
			<point x="887.8049316406" y="1465.5400390625" type="line"/>
			<point x="709.8334960938" y="517.2763671875" type="line"/>
			<point x="703.8334960938" y="488.2763671875" type="line"/>
			<point x="639.5085449219" y="125.6909179688" type="line"/>
			<point x="599.4030761719" y="5.7412109375" type="line"/>
			<point x="444.7556152344" y="-32.7294921875" type="line"/>
			<point x="410.1938476562" y="-4.6059570312" type="line"/>
			<point x="533.8947753906" y="489.2763671875" type="line"/>
			<point x="539.8947753906" y="522.2763671875" type="line"/>
			<point x="661.8615722656" y="1186.916015625" type="line"/>
			<point x="226.3757324219" y="575.4694824219" type="line"/>
			<point x="229.2219238281" y="563.3540039062" type="line"/>
			<point x="634.9692382812" y="565.892578125" type="line"/>
			<point x="788.9692382812" y="565.4694824219" type="line"/>
			<point x="771.6228027344" y="446.8139648438" type="line"/>
			<point x="620.6228027344" y="444.275390625" type="line"/>
		</contour>
	</outline>
</glyph>
<glyph name="five" format="2">
	<unicode hex="0035"/>
	<advance width="947"/>
	<outline>
		<contour>
			<point x="-49.6352539062" y="191.6000976562" type="qcurve" smooth="yes"/>
			<point x="-54.6352539062" y="266.2878417969"/>
			<point x="-0.4611816406" y="347.4450683594"/>
			<point x="48.8120117188" y="363.6118164062" type="qcurve"/>
			<point x="88.3061523438" y="356.3081054688" type="line"/>
			<point x="94.8002929688" y="257.2119140625" type="line" smooth="yes"/>
			<point x="147.6740722656" y="183.1511230469"/>
			<point x="235.060546875" y="89.0119628906"/>
			<point x="344.4699707031" y="89.0119628906" type="qcurve" smooth="yes"/>
			<point x="493.0676269531" y="89.0119628906"/>
			<point x="676.1665039062" y="367.4797363281"/>
			<point x="666.8972167969" y="565.8623046875" type="qcurve" smooth="yes"/>
			<point x="659.6279296875" y="730.8696289062"/>
			<point x="456.4384765625" y="856.0708007812"/>
			<point x="291.1276855469" y="824.9196777344" type="qcurve" smooth="yes"/>
			<point x="130.9855957031" y="788.86328125" type="line"/>
			<point x="81.9973144531" y="854.1801757812" type="line"/>
			<point x="246.6018066406" y="1464.5471191406" type="line"/>
			<point x="288.8930664062" y="1514.9477539062" type="line"/>
			<point x="886.9892578125" y="1514.9477539062" type="line"/>
			<point x="849.6979980469" y="1340.0090332031" type="line"/>
			<point x="342.6394042969" y="1340.0090332031" type="line"/>
			<point x="330.1452636719" y="1326.9775390625" type="line"/>
			<point x="287.2451171875" y="1136.3862304688"/>
			<point x="231.5852050781" y="953.7756347656"/>
			<point x="205.6337890625" y="906.3012695312" type="qcurve"/>
			<point x="494.6232910156" y="960.51171875" type="line"/>
			<point x="634.4348144531" y="975.1411132812"/>
			<point x="852.5095214844" y="768.0563964844"/>
			<point x="858.5095214844" y="570.4516601562" type="qcurve" smooth="yes"/>
			<point x="865.5095214844" y="336.208984375"/>
			<point x="603.9538574219" y="-24"/>
			<point x="332.1147460938" y="-24" type="qcurve" smooth="yes"/>
			<point x="180.3395996094" y="-24"/>
			<point x="-39.6352539062" y="78.9204101562"/>
		</contour>
	</outline>
</glyph>
<glyph name="six" format="2">
	<unicode hex="0036"/>
	<advance width="948"/>
	<outline>
		<contour>
			<point x="55" y="462.5595703125" type="qcurve" smooth="yes"/>
			<point x="54.2587890625" y="842.6323242188"/>
			<point x="514.8088378906" y="1476.9494628906"/>
			<point x="804.6826171875" y="1595.0051269531" type="qcurve"/>
			<point x="863.5478515625" y="1506.4721679688" type="line"/>
			<point x="624.255859375" y="1401.2414550781"/>
			<point x="243.1125488281" y="856.4309082031"/>
			<point x="234.7475585938" y="453.2448730469" type="qcurve" smooth="yes"/>
			<point x="229.2841796875" y="273.8266601562"/>
			<point x="361.5124511719" y="89.9736328125"/>
			<point x="429.126953125" y="90.5354003906" type="qcurve" smooth="yes"/>
			<point x="499.2204589844" y="90.5354003906"/>
			<point x="681.4477539062" y="317.5524902344"/>
			<point x="682.77734375" y="582.8786621094" type="qcurve" smooth="yes"/>
			<point x="688.7883300781" y="647.8881835938"/>
			<point x="658.7666015625" y="813.552734375"/>
			<point x="585.7517089844" y="813.552734375" type="qcurve" smooth="yes"/>
			<point x="579.0358886719" y="813.552734375"/>
			<point x="480.1750488281" y="745.1901855469"/>
			<point x="482.4675292969" y="728.1096191406" type="qcurve"/>
			<point x="446.4357910156" y="808.6635742188" type="line"/>
			<point x="461.8740234375" y="837.0034179688"/>
			<point x="631.6828613281" y="940.5688476562"/>
			<point x="661.2492675781" y="940.5688476562" type="qcurve" smooth="yes"/>
			<point x="750.3771972656" y="940.5688476562"/>
			<point x="898.9479980469" y="733.9033203125"/>
			<point x="898.3186035156" y="574.7917480469" type="qcurve" smooth="yes"/>
			<point x="897.8127441406" y="312.4929199219"/>
			<point x="577.9523925781" y="-21.4382324219"/>
			<point x="396.1645507812" y="-21.4382324219" type="qcurve" smooth="yes"/>
			<point x="296.7944335938" y="-22"/>
			<point x="55.494140625" y="202.5913085938"/>
		</contour>
	</outline>
</glyph>
<glyph name="seven" format="2">
	<unicode hex="0037"/>
	<advance width="842"/>
	<outline>
		<contour>
			<point x="90.1462402344" y="1169.0404052734" type="line"/>
			<point x="218.1796875" y="1513.9760742188" type="line"/>
			<point x="906.4370117188" y="1513.9760742188" type="line"/>
			<point x="915.66796875" y="1453.8601074219" type="line"/>
			<point x="792.158203125" y="1139.931640625"/>
			<point x="422.41796875" y="383.271484375"/>
			<point x="381.7592773438" y="54.5708007812" type="qcurve"/>
			<point x="180.9558105469" y="-20" type="line"/>
			<point x="129.3615722656" y="48.7619628906" type="line"/>
			<point x="255.8356933594" y="353.8540039062"/>
			<point x="593.0981445312" y="1061.0102539062"/>
			<point x="750.9052734375" y="1334.5314941406" type="qcurve"/>
			<point x="749.9052734375" y="1346.5314941406" type="line"/>
			<point x="304.5649414062" y="1346.5314941406" type="line"/>
			<point x="192.1486816406" y="1169.0792236328" type="line"/>
		</contour>
	</outline>
</glyph>
<glyph name="eight" format="2">
	<unicode hex="0038"/>
	<advance width="998"/>
	<outline>
		<contour>
			<point x="406.3701171875" y="809.1958007812" type="qcurve"/>
			<point x="503.8044433594" y="741.0915527344" type="line"/>
			<point x="403.0270996094" y="695.3569335938"/>
			<point x="115.50390625" y="466.8754882812"/>
			<point x="121.4897460938" y="336.326171875" type="qcurve" smooth="yes"/>
			<point x="127.4755859375" y="235.9675292969"/>
			<point x="256.4345703125" y="85.1274414062"/>
			<point x="381.5905761719" y="85.1274414062" type="qcurve" smooth="yes"/>
			<point x="524.4833984375" y="85.1274414062"/>
			<point x="689.8610839844" y="268.4870605469"/>
			<point x="690.8752441406" y="407.4897460938" type="qcurve" smooth="yes"/>
			<point x="691.8894042969" y="535.4516601562"/>
			<point x="505.2536621094" y="711.7470703125"/>
			<point x="381.0327148438" y="778.8168945312" type="qcurve" smooth="yes"/>
			<point x="275.3498535156" y="837.8017578125"/>
			<point x="206.0498046875" y="1015.4775390625"/>
			<point x="199.0498046875" y="1161.2407226562" type="qcurve" smooth="yes"/>
			<point x="193.0498046875" y="1308.9990234375"/>
			<point x="395.8125" y="1533.93359375"/>
			<point x="637" y="1533.93359375" type="qcurve" smooth="yes"/>
			<point x="772.8872070312" y="1532.93359375"/>
			<point x="952.4208984375" y="1379.9565429688"/>
			<point x="950.4208984375" y="1256.064453125" type="qcurve" smooth="yes"/>
			<point x="949.44921875" y="1126.4138183594"/>
			<point x="875.296875" y="949.4885253906"/>
			<point x="657.6657714844" y="839.1169433594" type="qcurve"/>
			<point x="549.818359375" y="901.3698730469" type="line"/>
			<point x="702.0014648438" y="969.3928222656"/>
			<point x="808.2016601562" y="1139.3005371094"/>
			<point x="806.2016601562" y="1234.85546875" type="qcurve" smooth="yes"/>
			<point x="805.2158203125" y="1320.2673339844"/>
			<point x="708.7199707031" y="1413.3952636719"/>
			<point x="608.716796875" y="1413.3952636719" type="qcurve" smooth="yes"/>
			<point x="502.283203125" y="1413.3952636719"/>
			<point x="358.6296386719" y="1287.7648925781"/>
			<point x="366.6296386719" y="1188.3481445312" type="qcurve" smooth="yes"/>
			<point x="373.6296386719" y="1099.1474609375"/>
			<point x="480.1804199219" y="981.0187988281"/>
			<point x="643.0671386719" y="876.1975097656" type="qcurve" smooth="yes"/>
			<point x="761.5856933594" y="794.4328613281"/>
			<point x="871.2104492188" y="586.6533203125"/>
			<point x="866.1821289062" y="425.5283203125" type="qcurve" smooth="yes"/>
			<point x="859.1538085938" y="226.0910644531"/>
			<point x="583.11328125" y="-24"/>
			<point x="394.7451171875" y="-24" type="qcurve" smooth="yes"/>
			<point x="182.19921875" y="-24"/>
			<point x="-28.2822265625" y="169.6567382812"/>
			<point x="-35.2680664062" y="324.0302734375" type="qcurve" smooth="yes"/>
			<point x="-42.25390625" y="460.5454101562"/>
			<point x="230.9497070312" y="725.509765625"/>
		</contour>
	</outline>
</glyph>
<glyph name="nine" format="2">
	<unicode hex="0039"/>
	<advance width="1007"/>
	<outline>
		<contour>
			<point x="51.2375488281" y="-63.5334472656" type="qcurve"/>
			<point x="-3.9423828125" y="26.9995117188" type="line"/>
			<point x="313.0349121094" y="106.2302246094"/>
			<point x="735.9753417969" y="635.28515625"/>
			<point x="743.0815429688" y="1031.240234375" type="qcurve" smooth="yes"/>
			<point x="748.9155273438" y="1203.6159667969"/>
			<point x="629.1882324219" y="1426.3273925781"/>
			<point x="534.5571289062" y="1426.3273925781" type="qcurve" smooth="yes"/>
			<point x="472.4636230469" y="1426.3273925781"/>
			<point x="260.744140625" y="1205.0725097656"/>
			<point x="257.9282226562" y="963.1682128906" type="qcurve" smooth="yes"/>
			<point x="256.6740722656" y="882.1586914062"/>
			<point x="296.8957519531" y="701.6357421875"/>
			<point x="425.8979492188" y="701.6357421875" type="qcurve" smooth="yes"/>
			<point x="399.6137695312" y="701.6357421875"/>
			<point x="473.0363769531" y="743.4365234375"/>
			<point x="485.3056640625" y="762.5170898438" type="qcurve"/>
			<point x="512.6520996094" y="689.9631347656" type="line"/>
			<point x="498.6520996094" y="664.6232910156"/>
			<point x="347.7197265625" y="592.6196289062"/>
			<point x="334.1533203125" y="592.6196289062" type="qcurve" smooth="yes"/>
			<point x="216.025390625" y="591.6196289062"/>
			<point x="56.3869628906" y="835.1435546875"/>
			<point x="58.3869628906" y="983.2551269531" type="qcurve" smooth="yes"/>
			<point x="59.3869628906" y="1231.8937988281"/>
			<point x="388.9885253906" y="1540.3010253906"/>
			<point x="550.7763671875" y="1540.3010253906" type="qcurve" smooth="yes"/>
			<point x="652.1552734375" y="1540.3010253906"/>
			<point x="915.8291015625" y="1278.8581542969"/>
			<point x="907.8291015625" y="1025.9255371094" type="qcurve" smooth="yes"/>
			<point x="896.8291015625" y="650.8527832031"/>
			<point x="405.3005371094" y="27.7692871094"/>
		</contour>
	</outline>
</glyph>
<glyph name="B" format="2">
	<unicode hex="0042"/>
	<advance width="1254"/>
	<outline>
		<contour>
			<point x="-72.9397583008" y="0" type="line"/>
			<point x="-53.059387207" y="100.001953125" type="line"/>
			<point x="135.9376831055" y="130.001953125" type="line"/>
			<point x="265.0573120117" y="757" type="line"/>
			<point x="380.7770385742" y="1366.7177734375" type="line"/>
			<point x="187.7799682617" y="1393.7177734375" type="line"/>
			<point x="197.0602416992" y="1500" type="line"/>
			<point x="755.6549682617" y="1500" type="line" smooth="yes"/>
			<point x="964.9591674805" y="1500"/>
			<point x="1132.4362182617" y="1297"/>
			<point x="1125.7340698242" y="1154" type="qcurve" smooth="yes"/>
			<point x="1119.0319213867" y="1013"/>
			<point x="923.8590698242" y="831"/>
			<point x="861.014831543" y="800" type="qcurve"/>
			<point x="860.014831543" y="793" type="line"/>
			<point x="943.4215698242" y="765"/>
			<point x="1132.542175293" y="577"/>
			<point x="1103.2443237305" y="413" type="qcurve" smooth="yes"/>
			<point x="1068.0568237305" y="215"/>
			<point x="765.016784668" y="0"/>
			<point x="573.190612793" y="0" type="qcurve" smooth="yes"/>
		</contour>
		<contour>
			<point x="305.453918457" y="117.9981079102" type="line"/>
			<point x="321.7872314453" y="97.6646728516" type="line"/>
			<point x="621.9893798828" y="97.6646728516" type="line" smooth="yes"/>
			<point x="659.6387939453" y="97.6646728516"/>
			<point x="897.878112793" y="251"/>
			<point x="923.7677612305" y="420" type="qcurve" smooth="yes"/>
			<point x="944.7677612305" y="565"/>
			<point x="795.5404663086" y="733.3345336914"/>
			<point x="698.2572631836" y="733.3345336914" type="qcurve" smooth="yes"/>
			<point x="422.5346069336" y="733.3345336914" type="line"/>
			<point x="417.2012329102" y="706.6677856445" type="line"/>
		</contour>
		<contour>
			<point x="446.7874755859" y="850.666015625" type="line"/>
			<point x="443.7874145508" y="832.9990234375" type="line"/>
			<point x="615.4387817383" y="832.9990234375" type="line" smooth="yes"/>
			<point x="738.9768676758" y="832.9990234375"/>
			<point x="943.995300293" y="1012"/>
			<point x="950.657409668" y="1151" type="qcurve" smooth="yes"/>
			<point x="957.319519043" y="1294"/>
			<point x="759.8557739258" y="1402.3356323242"/>
			<point x="668.8967895508" y="1402.3356323242" type="qcurve" smooth="yes"/>
			<point x="579.1213989258" y="1402.3356323242" type="line"/>
			<point x="550.4547119141" y="1386.0021972656" type="line"/>
		</contour>
	</outline>
	<anchor name="bottom" x="630" y="0"/>
	<anchor name="top" x="630" y="1500"/>
</glyph>
<glyph name="C" format="2">
	<unicode hex="0043"/>
	<advance width="1379"/>
	<outline>
		<contour>
			<point x="112.5421603331" y="841" type="qcurve" smooth="yes"/>
			<point x="195.7574923643" y="1156"/>
			<point x="653.5798339844" y="1545.5844726562"/>
			<point x="928.2890671064" y="1526" type="qcurve" smooth="yes"/>
			<point x="1057.9536132812" y="1519.3733520508"/>
			<point x="1182.8542480469" y="1476.9233398438"/>
			<point x="1242.7604980469" y="1449.5693359375" type="qcurve"/>
			<point x="1273.6242675781" y="1434" type="line"/>
			<point x="1305.3519333174" y="1420" type="line"/>
			<point x="1232.093998747" y="1040.3355712891" type="line"/>
			<point x="1121.0892380049" y="1040.3355712891" type="line"/>
			<point x="1132.9342697431" y="1272.0043334961" type="line"/>
			<point x="1106.1473434736" y="1322.254699707"/>
			<point x="1007.5571945478" y="1410.4426879883"/>
			<point x="904.269352751" y="1410.0026855469" type="qcurve" smooth="yes"/>
			<point x="668.574467497" y="1416.7356567383"/>
			<point x="355.9007418761" y="1127"/>
			<point x="280.5787814268" y="821" type="qcurve" smooth="yes"/>
			<point x="200.6588595518" y="505"/>
			<point x="427.8306689103" y="147.0319213867"/>
			<point x="592.3763842423" y="111.3307495117" type="qcurve" smooth="yes"/>
			<point x="854.7963061173" y="62.9844970703"/>
			<point x="1132.307358087" y="214.3317871094"/>
			<point x="1184.9922335753" y="326.3323974609" type="qcurve"/>
			<point x="1223.9918063292" y="310.6658325195" type="line"/>
			<point x="1258.6580050596" y="242.6673583984" type="line"/>
			<point x="1159.4592745909" y="73.7877197266"/>
			<point x="823.481364711" y="-54.7163085938"/>
			<point x="583.3741915831" y="-12" type="qcurve" smooth="yes"/>
			<point x="347.1547045548" y="35.765625"/>
			<point x="20.0621798643" y="489"/>
		</contour>
	</outline>
	<anchor name="bottom" x="596" y="0"/>
	<anchor name="top" x="906" y="1500"/>
</glyph>
<glyph name="D" format="2">
	<unicode hex="0044"/>
	<advance width="1521"/>
	<outline>
		<contour>
			<point x="-67.3639526367" y="0" type="line"/>
			<point x="-52.483581543" y="100.001953125" type="line"/>
			<point x="127.5134887695" y="124.001953125" type="line"/>
			<point x="265.1130981445" y="754" type="line"/>
			<point x="377.2327270508" y="1366.7177734375" type="line"/>
			<point x="191.875793457" y="1392.7177734375" type="line"/>
			<point x="199.6360473633" y="1500" type="line"/>
			<point x="706.6389770508" y="1500" type="line" smooth="yes"/>
			<point x="1133.223449707" y="1500"/>
			<point x="1433.6419067383" y="1088"/>
			<point x="1387.5432739258" y="760" type="qcurve" smooth="yes"/>
			<point x="1340.7092895508" y="414"/>
			<point x="806.076965332" y="0"/>
			<point x="479.5950317383" y="0" type="qcurve" smooth="yes"/>
		</contour>
		<contour>
			<point x="299.8830566406" y="111.3313598633" type="line"/>
			<point x="328.4050292969" y="106.116027832"/>
			<point x="539.8969116211" y="99.3313598633"/>
			<point x="626.7401733398" y="99.3313598633" type="qcurve" smooth="yes"/>
			<point x="774.2578735352" y="99.3313598633"/>
			<point x="1175.401184082" y="449.9991455078"/>
			<point x="1211.0266723633" y="761" type="qcurve" smooth="yes"/>
			<point x="1246.2501220703" y="1055.6674804688"/>
			<point x="1030.7512817383" y="1407.6689453125"/>
			<point x="792.7375488281" y="1401.6689453125" type="qcurve" smooth="yes"/>
			<point x="761.3723144531" y="1399.6689453125"/>
			<point x="570.3024902344" y="1396.6689453125"/>
			<point x="553.5505371094" y="1391.6689453125" type="qcurve"/>
			<point x="428.0701293945" y="754" type="line"/>
		</contour>
	</outline>
	<anchor name="bottom" x="686" y="0"/>
	<anchor name="center" x="448" y="754"/>
	<anchor name="top" x="827" y="1500"/>
	<anchor name="liga" x="1431" y="0"/>
</glyph>
<glyph name="F" format="2">
	<unicode hex="0046"/>
	<advance width="996"/>
	<outline>
		<contour>
			<point x="-88.6978149414" y="0" type="line"/>
			<point x="-68.8174438477" y="100.001953125" type="line"/>
			<point x="122.6996459961" y="130.001953125" type="line"/>
			<point x="257.2992553711" y="806" type="line"/>
			<point x="358.8588256836" y="1367.7177734375" type="line"/>
			<point x="161.5419311523" y="1393.7177734375" type="line"/>
			<point x="170.3021850586" y="1500" type="line"/>
			<point x="1131.1268920898" y="1500" type="line"/>
			<point x="1090.3472900391" y="1143.0473022461" type="line"/>
			<point x="988.6419067383" y="1143.0473022461" type="line"/>
			<point x="970.7917480469" y="1388.3353881836" type="line"/>
			<point x="539.8833007812" y="1394.3353881836" type="line"/>
			<point x="529.8833007812" y="1378.3353881836" type="line"/>
			<point x="419.2162475586" y="793" type="line"/>
			<point x="289.6166381836" y="130.001953125" type="line"/>
			<point x="489.0936889648" y="100.001953125" type="line"/>
			<point x="471.2133178711" y="0" type="line"/>
		</contour>
		<contour>
			<point x="333.7379150391" y="725.6676025391" type="line"/>
			<point x="358.2575683594" y="823.3323364258" type="line"/>
			<point x="787.7908935547" y="830.3322143555" type="line"/>
			<point x="858.2855834961" y="1014.9421386719" type="line"/>
			<point x="959.4138793945" y="1014.9421386719" type="line"/>
			<point x="861.3327026367" y="509.024230957" type="line"/>
			<point x="764.2044067383" y="509.024230957" type="line"/>
			<point x="768.4580078125" y="715.0010986328" type="line"/>
		</contour>
	</outline>
	<anchor name="bottom" x="578" y="0"/>
	<anchor name="top" x="622" y="1500"/>
</glyph>
<glyph name="G" format="2">
	<unicode hex="0047"/>
	<advance width="1572"/>
	<outline>
		<contour>
			<point x="113.9757933422" y="840" type="qcurve" smooth="yes"/>
			<point x="197.9757933422" y="1155"/>
			<point x="626.3256522397" y="1535.0766601562"/>
			<point x="831.8525077085" y="1527" type="qcurve" smooth="yes"/>
			<point x="939.6195975522" y="1523"/>
			<point x="1151.1351615171" y="1473.6666259766"/>
			<point x="1222.597624896" y="1436" type="qcurve" smooth="yes"/>
			<point x="1226.9501639585" y="1427" type="line"/>
			<point x="1233.1493827085" y="1420" type="line"/>
			<point x="1159.1864310483" y="1025.2458496094" type="line"/>
			<point x="1053.3507376889" y="1025.2458496094" type="line"/>
			<point x="1055.0806571225" y="1286.8045043945" type="line"/>
			<point x="1033.313262103" y="1342.8038330078"/>
			<point x="928.8252860288" y="1403.1358642578"/>
			<point x="870.5956107358" y="1410.6693115234" type="qcurve" smooth="yes"/>
			<point x="675.5151053647" y="1434.532043457"/>
			<point x="362.852258186" y="1131"/>
			<point x="284.4123167797" y="820" type="qcurve" smooth="yes"/>
			<point x="206.1877074047" y="509.3333129883"/>
			<point x="436.4893485288" y="146.3305664062"/>
			<point x="579.741789935" y="107.6640014648" type="qcurve" smooth="yes"/>
			<point x="665.8176566342" y="83.6640625"/>
			<point x="892.9686576108" y="138.6642456055"/>
			<point x="967.3700247983" y="210.3304443359" type="qcurve"/>
			<point x="1055.9701834897" y="558.9580078125" type="line"/>
			<point x="852.1332694272" y="588.4780273438" type="line"/>
			<point x="865.3735038022" y="690" type="line"/>
			<point x="1398.7646170835" y="690" type="line"/>
			<point x="1381.484343646" y="586.9580078125" type="line"/>
			<point x="1229.367156146" y="557.9580078125" type="line"/>
			<point x="1128.4071952085" y="171.318359375" type="line"/>
			<point x="1064.810515521" y="115.1591796875" type="line"/>
			<point x="983.3212577085" y="42.2397460938"/>
			<point x="699.3178397397" y="-44"/>
			<point x="541.7983084897" y="-16" type="qcurve" smooth="yes"/>
			<point x="311.0053397397" y="25"/>
			<point x="19.9757933422" y="489"/>
		</contour>
	</outline>
	<anchor name="bottom" x="667" y="0"/>
	<anchor name="top" x="907" y="1492"/>
</glyph>
<glyph name="K" format="2">
	<unicode hex="004B"/>
	<advance width="1133"/>
	<outline>
		<contour>
			<point x="-67.4244384766" y="0" type="line"/>
			<point x="-42.7442626953" y="100.001953125" type="line"/>
			<point x="142.4530029297" y="128.001953125" type="line"/>
			<point x="270.5726318359" y="762" type="line"/>
			<point x="382.1322021484" y="1367.7177734375" type="line"/>
			<point x="186.8153076172" y="1392.7177734375" type="line"/>
			<point x="194.5755615234" y="1500" type="line"/>
			<point x="770.3265380859" y="1500" type="line"/>
			<point x="750.5662841797" y="1392.7177734375" type="line"/>
			<point x="551.8890380859" y="1367.7177734375" type="line"/>
			<point x="427.4495849609" y="748" type="line"/>
			<point x="313.6898193359" y="128.001953125" type="line"/>
			<point x="511.4866943359" y="100.001953125" type="line"/>
			<point x="501.8065185547" y="0" type="line"/>
		</contour>
		<contour>
			<point x="283.9518432617" y="525.236328125" type="line"/>
			<point x="329.7811889648" y="709.22265625" type="line"/>
			<point x="904.0062866211" y="1370.7177734375" type="line"/>
			<point x="744.8895874023" y="1390.7177734375" type="line"/>
			<point x="755.6498413086" y="1500" type="line"/>
			<point x="1268.6410522461" y="1500" type="line"/>
			<point x="1257.8807983398" y="1389.7177734375" type="line"/>
			<point x="1080.2035522461" y="1371.7177734375" type="line"/>
		</contour>
		<contour>
			<point x="506.6118774414" y="871.3704223633" type="line"/>
			<point x="653.7911987305" y="1017.8486938477" type="line"/>
			<point x="954.9340820312" y="123.001953125" type="line"/>
			<point x="1127.7309570312" y="103.001953125" type="line"/>
			<point x="1118.05078125" y="0" type="line"/>
			<point x="553.33984375" y="0" type="line"/>
			<point x="563.0200195312" y="103.001953125" type="line"/>
			<point x="764.2172851562" y="123.001953125" type="line"/>
		</contour>
	</outline>
	<anchor name="bottom" x="607" y="0"/>
	<anchor name="top" x="896" y="1500"/>
	<anchor name="kai_tail" x="1201" y="100"/>
</glyph>
<glyph name="L" format="2">
	<unicode hex="004C"/>
	<advance width="1003"/>
	<outline>
		<contour>
			<point x="-81.5155639648" y="0" type="line"/>
			<point x="-57.3153686523" y="100.001953125" type="line"/>
			<point x="127.3618774414" y="128.001953125" type="line"/>
			<point x="271.4815063477" y="806" type="line"/>
			<point x="368.0410766602" y="1377.2377929688" type="line"/>
			<point x="180.2442016602" y="1393.2377929688" type="line"/>
			<point x="188.4844360352" y="1500" type="line"/>
			<point x="735.8755493164" y="1500" type="line"/>
			<point x="711.6353149414" y="1393.2377929688" type="line"/>
			<point x="542.4380493164" y="1377.2377929688" type="line"/>
			<point x="425.8784790039" y="754" type="line"/>
			<point x="305.5447387695" y="128.6646118164" type="line"/>
			<point x="329.5447387695" y="101.6646118164" type="line"/>
			<point x="800.2362060547" y="101.6646118164" type="line"/>
			<point x="975.5205078125" y="402.3609619141" type="line"/>
			<point x="1075.2613525391" y="402.3609619141" type="line"/>
			<point x="921.3065795898" y="0" type="line"/>
		</contour>
	</outline>
	<anchor name="bottom" x="535" y="0"/>
	<anchor name="centerright" x="755" y="750"/>
	<anchor name="top" x="878" y="1500"/>
	<anchor name="topright" x="804" y="1001"/>
	<anchor name="center" x="397" y="750"/>
	<anchor name="liga" x="1104" y="0"/>
</glyph>
<glyph name="M" format="2">
	<unicode hex="004D"/>
	<advance width="1860"/>
	<outline>
		<contour>
			<point x="-105.6978149414" y="0" type="line"/>
			<point x="-96.0176391602" y="100.001953125" type="line"/>
			<point x="117.1796264648" y="135.001953125" type="line"/>
			<point x="244.071472168" y="753" type="line"/>
			<point x="364.3788452148" y="1357.7177734375" type="line"/>
			<point x="160.5419311523" y="1393.7177734375" type="line"/>
			<point x="172.3021850586" y="1500" type="line"/>
			<point x="668.1131591797" y="1500" type="line"/>
			<point x="728.6043701172" y="803.168762207" type="line"/>
			<point x="792.3223266602" y="306.9177246094" type="line"/>
			<point x="799.6115112305" y="185.1669311523" type="line"/>
			<point x="805.6115112305" y="185.1669311523" type="line"/>
			<point x="864.5108642578" y="305.4777832031" type="line"/>
			<point x="1177.8726806641" y="879.9834594727" type="line"/>
			<point x="1500.8032836914" y="1500" type="line"/>
			<point x="1943.4799804688" y="1500" type="line"/>
			<point x="1924.5595703125" y="1392.7177734375" type="line"/>
			<point x="1730.0424804688" y="1357.7177734375" type="line"/>
			<point x="1615.9228515625" y="771" type="line"/>
			<point x="1491.9233398438" y="135.001953125" type="line"/>
			<point x="1692.7202148438" y="100.001953125" type="line"/>
			<point x="1684.0400390625" y="0" type="line"/>
			<point x="1095.6489257812" y="0" type="line"/>
			<point x="1114.3291015625" y="100.001953125" type="line"/>
			<point x="1319.5263671875" y="135.001953125" type="line"/>
			<point x="1458.9658203125" y="787" type="line"/>
			<point x="1558.7811279297" y="1295.8268432617" type="line"/>
			<point x="1590.2858276367" y="1437.16015625" type="line"/>
			<point x="1584.2858276367" y="1439.16015625" type="line"/>
			<point x="1503.4645385742" y="1286.7056884766" type="line"/>
			<point x="1261.9196166992" y="816.9420166016" type="line"/>
			<point x="807.1807250977" y="-7" type="line"/>
			<point x="655.8493652344" y="-7" type="line"/>
			<point x="563.5576782227" y="804.2991333008" type="line"/>
			<point x="509.9586791992" y="1292.0615234375" type="line"/>
			<point x="488.2971801758" y="1458.6666870117" type="line"/>
			<point x="482.2971801758" y="1456.0000610352" type="line"/>
			<point x="461.9862670898" y="1299.0000610352" type="line"/>
			<point x="352.9638061523" y="753" type="line"/>
			<point x="234.1774902344" y="135.001953125" type="line"/>
			<point x="466.1745605469" y="100.001953125" type="line"/>
			<point x="460.2941894531" y="0" type="line"/>
		</contour>
	</outline>
	<anchor name="bottom" x="768" y="0"/>
	<anchor name="top" x="1048" y="1500"/>
</glyph>
<glyph name="N" format="2">
	<unicode hex="004E"/>
	<advance width="1554"/>
	<outline>
		<contour>
			<point x="-105.6978149414" y="0" type="line"/>
			<point x="-87.0176391602" y="100.001953125" type="line"/>
			<point x="115.6996459961" y="125.001953125" type="line"/>
			<point x="243.2992553711" y="765" type="line"/>
			<point x="363.3788452148" y="1377.7177734375" type="line"/>
			<point x="167.5419311523" y="1393.7177734375" type="line"/>
			<point x="178.3021850586" y="1500" type="line"/>
			<point x="615.1120605469" y="1500" type="line"/>
			<point x="910.1537475586" y="783.9907836914" type="line"/>
			<point x="1109.145324707" y="347.0759277344" type="line"/>
			<point x="1129.3252563477" y="269.6223754883" type="line"/>
			<point x="1135.3252563477" y="271.6223754883" type="line"/>
			<point x="1150.9519042969" y="375.6223754883" type="line"/>
			<point x="1226.3729858398" y="801" type="line"/>
			<point x="1321.9325561523" y="1357.1977539062" type="line"/>
			<point x="1074.5756225586" y="1393.1977539062" type="line"/>
			<point x="1089.3759155273" y="1500" type="line"/>
			<point x="1657.0347290039" y="1500" type="line"/>
			<point x="1643.2344360352" y="1393.1977539062" type="line"/>
			<point x="1440.5972290039" y="1357.1977539062" type="line"/>
			<point x="1333.0376586914" y="790" type="line"/>
			<point x="1185.0376586914" y="-4" type="line"/>
			<point x="1038.8397827148" y="-4" type="line"/>
			<point x="752.9898681641" y="735.3853759766" type="line"/>
			<point x="496.141784668" y="1250.6478881836" type="line"/>
			<point x="462.0848999023" y="1348.7240600586" type="line"/>
			<point x="456.0848999023" y="1346.7240600586" type="line"/>
			<point x="440.6713867188" y="1229.7240600586" type="line"/>
			<point x="350.6306152344" y="744" type="line"/>
			<point x="236.5109863281" y="125.001953125" type="line"/>
			<point x="477.3078613281" y="100.001953125" type="line"/>
			<point x="463.6276855469" y="0" type="line"/>
		</contour>
	</outline>
	<anchor name="bottom" x="640" y="0"/>
	<anchor name="top" x="884" y="1500"/>
	<anchor name="engtail" x="1041" y="0"/>
	<anchor name="liga" x="1432" y="0"/>
</glyph>
<glyph name="P" format="2">
	<unicode hex="0050"/>
	<advance width="1129"/>
	<outline>
		<contour>
			<point x="-111.4718017578" y="0" type="line"/>
			<point x="-101.7916259766" y="100.001953125" type="line"/>
			<point x="88.4056396484" y="126.001953125" type="line"/>
			<point x="230.0052490234" y="784" type="line"/>
			<point x="330.6048583984" y="1366.7177734375" type="line"/>
			<point x="136.7679443359" y="1393.7177734375" type="line"/>
			<point x="145.5281982422" y="1500" type="line"/>
			<point x="721.0086669922" y="1500" type="line" smooth="yes"/>
			<point x="970.4046630859" y="1500"/>
			<point x="1173.5306396484" y="1246"/>
			<point x="1138.7210693359" y="1039" type="qcurve" smooth="yes"/>
			<point x="1105.9114990234" y="845"/>
			<point x="787.5668334961" y="606.3352661133"/>
			<point x="605.9559936523" y="606.3352661133" type="qcurve" smooth="yes"/>
			<point x="507.2738647461" y="606.3352661133"/>
			<point x="327.9514160156" y="643.5084228516"/>
			<point x="290.5106811523" y="655.2817993164" type="qcurve"/>
			<point x="309.3236083984" y="752.6396484375" type="line"/>
			<point x="333.6668701172" y="734.8798828125"/>
			<point x="449.6644287109" y="707"/>
			<point x="569.2430419922" y="707" type="qcurve" smooth="yes"/>
			<point x="730.2874755859" y="707"/>
			<point x="939.1243896484" y="872"/>
			<point x="971.1243896484" y="1049" type="qcurve" smooth="yes"/>
			<point x="1000.1243896484" y="1212"/>
			<point x="874.6389770508" y="1403.6688842773"/>
			<point x="668.4719848633" y="1403.6688842773" type="qcurve" smooth="yes"/>
			<point x="528.4426879883" y="1403.6688842773" type="line"/>
			<point x="502.109375" y="1381.6688842773" type="line"/>
			<point x="386.9222412109" y="765" type="line"/>
			<point x="259.8026123047" y="129.001953125" type="line"/>
			<point x="469.1195068359" y="97.001953125" type="line"/>
			<point x="458.4393310547" y="0" type="line"/>
		</contour>
	</outline>
	<anchor name="bottom" x="634" y="0"/>
	<anchor name="top" x="634" y="1500"/>
</glyph>
<glyph name="Q" format="2">
	<unicode hex="0051"/>
	<advance width="1543"/>
	<outline>
		<contour>
			<point x="104.2048339844" y="884" type="qcurve" smooth="yes"/>
			<point x="171.2048339844" y="1226"/>
			<point x="683.0598144531" y="1573.2397460938"/>
			<point x="960.9235839844" y="1520" type="qcurve" smooth="yes"/>
			<point x="1245.6735839844" y="1463.4555664062"/>
			<point x="1487.4548339844" y="991"/>
			<point x="1410.8508300781" y="652" type="qcurve" smooth="yes"/>
			<point x="1328.4621582031" y="285"/>
			<point x="825.4631347656" y="-52.7294921875"/>
			<point x="550.1125488281" y="-19" type="qcurve" smooth="yes"/>
			<point x="302.6164550781" y="14.5600585938"/>
			<point x="31.2048339844" y="507"/>
		</contour>
		<contour>
			<point x="278.6813964844" y="868" type="qcurve" smooth="yes"/>
			<point x="212.5454101562" y="544.5402832031"/>
			<point x="344.8086547852" y="120.9978637695"/>
			<point x="562.2262573242" y="86.9978637695" type="qcurve" smooth="yes"/>
			<point x="788.385559082" y="50.9978637695"/>
			<point x="1168.8948974609" y="357.1160888672"/>
			<point x="1235.4543457031" y="663" type="qcurve" smooth="yes"/>
			<point x="1295.0426025391" y="935.6462402344"/>
			<point x="1140.6237792969" y="1357.6690673828"/>
			<point x="903.5933227539" y="1407.6690673828" type="qcurve" smooth="yes"/>
			<point x="694.5951538086" y="1453.6690673828"/>
			<point x="337.4059448242" y="1168.0024414062"/>
		</contour>
		<contour>
			<point x="475.0354003906" y="-28.3671875" type="qcurve"/>
			<point x="413.9602050781" y="-16.8056640625" type="line"/>
			<point x="833.1032714844" y="-286.9453125" type="line" smooth="yes"/>
			<point x="907.6530151367" y="-286.430480957"/>
			<point x="1067.4721069336" y="-180.763671875"/>
			<point x="1127.6189575195" y="-112.1898193359" type="qcurve"/>
			<point x="1198.9509277344" y="-162.5219726562" type="line"/>
			<point x="1128.9509277344" y="-262.5219726562"/>
			<point x="935.9436035156" y="-431.9829101562"/>
			<point x="780.3840332031" y="-438.22265625" type="qcurve"/>
			<point x="468.2756347656" y="-176.0043945312" type="line"/>
			<point x="365.8084106445" y="-186.9501953125"/>
			<point x="265.6049194336" y="-219.5588378906"/>
			<point x="169.2322387695" y="-287.9986572266" type="qcurve"/>
			<point x="120.2331542969" y="-232" type="line"/>
			<point x="202.6330566406" y="-154.5200195312"/>
			<point x="365.5153808594" y="-43.2465820312"/>
		</contour>
		<contour>
			<point x="312.8502807617" y="-33.0315551758" type="line"/>
			<point x="351.5863647461" y="12.8788452148"/>
			<point x="493.0667724609" y="132.6660766602"/>
			<point x="562.0665893555" y="188.3326416016" type="qcurve" smooth="yes"/>
			<point x="570.4000854492" y="193.9995117188"/>
			<point x="581.7335205078" y="204.9996337891"/>
			<point x="592.4000854492" y="210.9995727539" type="qcurve"/>
			<point x="621.7329101562" y="200.6664428711"/>
			<point x="683.3987426758" y="175.0004272461"/>
			<point x="698.3984985352" y="161.6673583984" type="qcurve"/>
			<point x="688.0651855469" y="151.3341064453"/>
			<point x="673.7318115234" y="140.0007324219"/>
			<point x="663.7316894531" y="133.6672363281" type="qcurve" smooth="yes"/>
			<point x="607.0651855469" y="95.3338012695"/>
			<point x="457.1178588867" y="-24.0672607422"/>
			<point x="428.2221069336" y="-56.32421875" type="qcurve"/>
		</contour>
	</outline>
	<anchor name="bottom" x="832" y="0"/>
	<anchor name="top" x="832" y="1500"/>
</glyph>
<glyph name="R" format="2">
	<unicode hex="0052"/>
	<advance width="1259"/>
	<outline>
		<contour>
			<point x="-83.6978149414" y="0" type="line"/>
			<point x="-68.8174438477" y="100.001953125" type="line"/>
			<point x="121.1796264648" y="131.001953125" type="line"/>
			<point x="253.6591186523" y="759" type="line"/>
			<point x="348.9389038086" y="1366.7177734375" type="line"/>
			<point x="161.6220092773" y="1393.7177734375" type="line"/>
			<point x="170.3822631836" y="1500" type="line"/>
			<point x="731.9667358398" y="1500" type="line" smooth="yes"/>
			<point x="936.7074584961" y="1500"/>
			<point x="1161.4852905273" y="1283"/>
			<point x="1134.6991577148" y="1102" type="qcurve" smooth="yes"/>
			<point x="1107.0233764648" y="921"/>
			<point x="791.268371582" y="684.3343505859"/>
			<point x="689.1350708008" y="684.3343505859" type="qcurve" smooth="yes"/>
			<point x="580.0872192383" y="684.3343505859"/>
			<point x="355.797668457" y="690.3343505859"/>
			<point x="319.3245239258" y="697.2542724609" type="qcurve"/>
			<point x="339.8441772461" y="789.9991455078" type="line"/>
			<point x="457.9628295898" y="789.9991455078" type="line"/>
			<point x="628.5101928711" y="789.9991455078" type="line" smooth="yes"/>
			<point x="803.4691772461" y="789.9991455078"/>
			<point x="950.2929077148" y="959"/>
			<point x="967.1825561523" y="1107" type="qcurve" smooth="yes"/>
			<point x="984.0722045898" y="1255"/>
			<point x="853.4749145508" y="1402.0022583008"/>
			<point x="705.1683349609" y="1401.0022583008" type="qcurve" smooth="yes"/>
			<point x="554.6566162109" y="1400.0022583008" type="line"/>
			<point x="521.3233032227" y="1378.0022583008" type="line"/>
			<point x="409.6561889648" y="753" type="line"/>
			<point x="291.5365600586" y="133.001953125" type="line"/>
			<point x="489.5336303711" y="100.001953125" type="line"/>
			<point x="475.6532592773" y="0" type="line"/>
		</contour>
		<contour>
			<point x="625.5639038086" y="737.8267822266" type="line"/>
			<point x="776.2011108398" y="771.7861328125" type="line"/>
			<point x="771.9667358398" y="718" type="line" smooth="yes"/>
			<point x="792.7518920898" y="496.3935546875"/>
			<point x="944.7821655273" y="120.78515625"/>
			<point x="1112.0726928711" y="99.4819335938" type="qcurve"/>
			<point x="1091.5507202148" y="0" type="line"/>
			<point x="1032.8749389648" y="0" type="line" smooth="yes"/>
			<point x="828.4564819336" y="0"/>
			<point x="658.7526855469" y="409.8896484375"/>
			<point x="622.9281616211" y="701" type="qcurve" smooth="yes"/>
		</contour>
	</outline>
	<anchor name="bottom" x="573" y="0"/>
	<anchor name="top" x="670" y="1500"/>
</glyph>
<glyph name="S" format="2">
	<unicode hex="0053"/>
	<advance width="944"/>
	<outline>
		<contour>
			<point x="-72.5530395508" y="-15.9378051758" type="line"/>
			<point x="9.1694946289" y="460.9633789062" type="line"/>
			<point x="100.4194946289" y="458.9633789062" type="line"/>
			<point x="96.6858520508" y="339.6646728516" type="line" smooth="yes"/>
			<point x="93.7522583008" y="229.3312988281"/>
			<point x="259.055847168" y="81.9975585938"/>
			<point x="398.8631591797" y="81.9975585938" type="qcurve" smooth="yes"/>
			<point x="532.9575805664" y="81.9975585938"/>
			<point x="747.3715209961" y="239.6654663086"/>
			<point x="753.3715209961" y="384.9989624023" type="qcurve" smooth="yes"/>
			<point x="758.3715209961" y="518.998840332"/>
			<point x="564.9572143555" y="643.684753418"/>
			<point x="470.6715698242" y="734.8702392578" type="qcurve" smooth="yes"/>
			<point x="357.9937744141" y="821.8580322266"/>
			<point x="165.8427124023" y="1010.3350830078"/>
			<point x="173.8427124023" y="1200" type="qcurve" smooth="yes"/>
			<point x="181.8427124023" y="1353"/>
			<point x="409.5390625" y="1542"/>
			<point x="563.0910644531" y="1542" type="qcurve" smooth="yes"/>
			<point x="678.1037597656" y="1542"/>
			<point x="816.3608398438" y="1475.4802856445"/>
			<point x="848.1668701172" y="1440.8670654297" type="qcurve"/>
			<point x="926.7088012695" y="1554.0166625977" type="line"/>
			<point x="996.6677856445" y="1538.4079589844" type="line"/>
			<point x="927.1095581055" y="1064.0492553711" type="line"/>
			<point x="832.9664916992" y="1064.0492553711" type="line"/>
			<point x="822.0333251953" y="1256.1357421875" type="line"/>
			<point x="830.8342285156" y="1314.1353759766"/>
			<point x="672.9814453125" y="1439.6690063477"/>
			<point x="589.7661743164" y="1439.6690063477" type="qcurve" smooth="yes"/>
			<point x="481.8573608398" y="1439.6690063477"/>
			<point x="328.3862915039" y="1320.001159668"/>
			<point x="322.3862915039" y="1217.6403198242" type="qcurve" smooth="yes"/>
			<point x="316.3862915039" y="1086.4942016602"/>
			<point x="485.0100708008" y="949.6982421875"/>
			<point x="680.856262207" y="816.8549804688" type="qcurve" smooth="yes"/>
			<point x="698.9860839844" y="746.7767944336"/>
			<point x="911.1953735352" y="567.1987304688"/>
			<point x="902.1953735352" y="385.8393554688" type="qcurve" smooth="yes"/>
			<point x="893.6753540039" y="192.2797851562"/>
			<point x="608.5338134766" y="-26"/>
			<point x="443.4786376953" y="-26" type="qcurve" smooth="yes"/>
			<point x="305.1750488281" y="-26"/>
			<point x="119.5482177734" y="49.1995849609"/>
			<point x="81.4859619141" y="108.3989257812" type="qcurve"/>
			<point x="-3.1012573242" y="-32.6310424805" type="line"/>
		</contour>
	</outline>
	<anchor name="bottom" x="399" y="0"/>
	<anchor name="top" x="679" y="1500"/>
</glyph>
<glyph name="Y" format="2">
	<unicode hex="0059"/>
	<advance width="1144"/>
	<outline>
		<contour>
			<point x="178.7877197266" y="0" type="line"/>
			<point x="190.4678955078" y="99.001953125" type="line"/>
			<point x="406.6651611328" y="131.001953125" type="line"/>
			<point x="509.1182861328" y="633.6674804688" type="line"/>
			<point x="351.4791870117" y="990.7098388672" type="line"/>
			<point x="208.5009155273" y="1360.7177734375" type="line"/>
			<point x="20.5038452148" y="1394.7177734375" type="line"/>
			<point x="33.2640991211" y="1500" type="line"/>
			<point x="563.5953979492" y="1500" type="line"/>
			<point x="550.835144043" y="1394.7177734375" type="line"/>
			<point x="356.8380737305" y="1370.7177734375" type="line"/>
			<point x="504.2247924805" y="1055.0488891602" type="line"/>
			<point x="621.7931518555" y="761.4724121094" type="line"/>
			<point x="627.7931518555" y="761.4724121094" type="line"/>
			<point x="896.3923339844" y="1098.8894042969" type="line"/>
			<point x="1116.7322998047" y="1362.7177734375" type="line"/>
			<point x="901.7352294922" y="1394.7177734375" type="line"/>
			<point x="914.4954833984" y="1500" type="line"/>
			<point x="1423.8165893555" y="1500" type="line"/>
			<point x="1410.0563354492" y="1394.7177734375" type="line"/>
			<point x="1219.0592651367" y="1360.7177734375" type="line"/>
			<point x="970.5785522461" y="1028.4116821289" type="line"/>
			<point x="670.3980102539" y="660.1885375977" type="line"/>
			<point x="572.6221923828" y="128.001953125" type="line"/>
			<point x="766.4190673828" y="99.001953125" type="line"/>
			<point x="757.7388916016" y="0" type="line"/>
		</contour>
	</outline>
	<anchor name="bottom" x="443" y="0"/>
	<anchor name="top" x="731" y="1500"/>
	<anchor name="tonos" x="-13" y="1500"/>
	<anchor name="center" x="553" y="579"/>
</glyph>
<glyph name="a" format="2">
	<unicode hex="0061"/>
	<advance width="1121"/>
	<outline>
		<contour>
			<point x="35.9986572266" y="286" type="qcurve" smooth="yes"/>
			<point x="35.9986572266" y="566.1364746094"/>
			<point x="453.3179187309" y="999.1381835938"/>
			<point x="643.7275866996" y="999.1381835938" type="qcurve" smooth="yes"/>
			<point x="711.5234851371" y="999.1381835938"/>
			<point x="787.4986572266" y="962.1381835938"/>
			<point x="811.1046142578" y="946.1381835938" type="qcurve"/>
			<point x="855.6551513672" y="1022.1381835938" type="line"/>
			<point x="893.9439697266" y="1022.1381835938" type="line"/>
			<point x="933.5405749809" y="885.1381835938" type="line"/>
			<point x="836.1421374809" y="367" type="line"/>
			<point x="801.1421374809" y="213" type="line"/>
			<point x="803.2881335746" y="145"/>
			<point x="799.1860827934" y="65"/>
			<point x="828.2810534965" y="14" type="qcurve"/>
			<point x="675.6154846534" y="-14" type="line"/>
			<point x="667.1840881691" y="29.5400390625"/>
			<point x="656.0085510597" y="156.8732910156"/>
			<point x="661.9201721534" y="206.3474121094" type="qcurve"/>
			<point x="562.1650452003" y="74.2822265625"/>
			<point x="353.5305237159" y="-10"/>
			<point x="266.7507385597" y="-10" type="qcurve" smooth="yes"/>
			<point x="164.4392151222" y="-10"/>
			<point x="35.9986572266" y="132"/>
		</contour>
		<contour>
			<point x="201.5765380859" y="306" type="qcurve" smooth="yes"/>
			<point x="201.5765380859" y="166"/>
			<point x="270.8765124809" y="88.486328125"/>
			<point x="340.7739734184" y="88.486328125" type="qcurve" smooth="yes"/>
			<point x="416.6440906059" y="88.486328125"/>
			<point x="665.2244128715" y="259.1142578125"/>
			<point x="695.2199768409" y="436.486328125" type="qcurve" smooth="yes"/>
			<point x="760.762498809" y="804.0249023438" type="line"/>
			<point x="768.6788330078" y="834.0249023438"/>
			<point x="728.834764434" y="882.0249023438"/>
			<point x="621.7249011528" y="882.0249023438" type="qcurve" smooth="yes"/>
			<point x="473.9431628715" y="882.0249023438"/>
			<point x="201.5765380859" y="519.1364746094"/>
		</contour>
	</outline>
	<anchor name="bottom" x="345" y="0"/>
	<anchor name="ogonek" x="732" y="0"/>
	<anchor name="top" x="608" y="1000"/>
</glyph>
<glyph name="b" format="2">
	<unicode hex="0062"/>
	<advance width="1067"/>
	<outline>
		<contour>
			<point x="12.9357829922" y="157" type="qcurve" smooth="yes"/>
			<point x="98.5639568204" y="561" type="line"/>
			<point x="278.8940349454" y="1405.9940185547" type="line"/>
			<point x="192.1037517422" y="1449.9940185547" type="line"/>
			<point x="210.1948161954" y="1521.0853271484" type="line"/>
			<point x="385.8188396328" y="1571.0853271484" type="line"/>
			<point x="457.2424236172" y="1503.2515869141" type="line"/>
			<point x="249.6162029141" y="535" type="line"/>
			<point x="171.988029086" y="155" type="line" smooth="yes"/>
			<point x="163.8110271329" y="114.859375"/>
			<point x="200.9204021329" y="107.2763671875"/>
			<point x="198.6528240079" y="108.2763671875" type="qcurve" smooth="yes"/>
			<point x="394.6589275235" y="113.2763671875"/>
			<point x="783.0380779141" y="413.4068603516"/>
			<point x="784.8920818203" y="679.1647949219" type="qcurve" smooth="yes"/>
			<point x="784.8920818203" y="797.3747558594"/>
			<point x="708.7275310391" y="889.9118652344"/>
			<point x="633.7253337735" y="888.9118652344" type="qcurve" smooth="yes"/>
			<point x="560.7590251797" y="886.9118652344"/>
			<point x="232.4738689297" y="665.3962402344"/>
			<point x="191.077872836" y="582.2790527344" type="qcurve"/>
			<point x="217.613029086" y="748.6704101562" type="line"/>
			<point x="306.855216586" y="817.4484863281"/>
			<point x="612.4299236172" y="1025.1647949219"/>
			<point x="701.4907146328" y="1025.1647949219" type="qcurve" smooth="yes"/>
			<point x="820.0253826016" y="1025.1647949219"/>
			<point x="967.1918865078" y="856.1647949219"/>
			<point x="966.2648845547" y="734.1647949219" type="qcurve" smooth="yes"/>
			<point x="964.4108806485" y="392.4068603516"/>
			<point x="505.2021404141" y="-13"/>
			<point x="148.5161052579" y="-13" type="qcurve" smooth="yes"/>
			<point x="78.5617595547" y="-13"/>
			<point x="-4.0642170078" y="77"/>
		</contour>
	</outline>
	<anchor name="bottom" x="571" y="0"/>
	<anchor name="top" x="571" y="1533"/>
</glyph>
<glyph name="c" format="2">
	<unicode hex="0063"/>
	<advance width="895"/>
	<outline>
		<contour>
			<point x="14.5561523438" y="506.9476318359" type="qcurve" smooth="yes"/>
			<point x="66.9887695312" y="743.6781005859"/>
			<point x="381.0463867188" y="1023.8952636719"/>
			<point x="556.8102416992" y="1023.8952636719" type="qcurve" smooth="yes"/>
			<point x="674.104675293" y="1023.8952636719"/>
			<point x="811.1015014648" y="920.9404296875"/>
			<point x="819.1015014648" y="823.3411254883" type="qcurve" smooth="yes"/>
			<point x="825.1015014648" y="738.5194702148"/>
			<point x="727.4944458008" y="641.3648681641"/>
			<point x="643.3204956055" y="626.9427490234" type="qcurve"/>
			<point x="597.833190918" y="647.9427490234" type="line"/>
			<point x="602.833190918" y="839.9427490234" type="line" smooth="yes"/>
			<point x="603.833190918" y="869.9427490234"/>
			<point x="562.6644897461" y="912.9427490234"/>
			<point x="516.5292358398" y="912.9427490234" type="qcurve" smooth="yes"/>
			<point x="387.1310424805" y="912.9427490234"/>
			<point x="215.2327270508" y="665.8765869141"/>
			<point x="181.7109375" y="500.9476318359" type="qcurve" smooth="yes"/>
			<point x="144.2973022461" y="316.5905151367"/>
			<point x="206.6408691406" y="95.7301635742"/>
			<point x="358.0463867188" y="95.7301635742" type="qcurve" smooth="yes"/>
			<point x="459.5786132812" y="95.7301635742"/>
			<point x="684.8997192383" y="212.6421508789"/>
			<point x="727.203125" y="282.2211914062" type="qcurve"/>
			<point x="776.3287353516" y="231.244934082" type="line"/>
			<point x="779.3287353516" y="191.9345703125" type="line"/>
			<point x="737.5985107422" y="110.2518310547"/>
			<point x="419.9313964844" y="-17"/>
			<point x="284.9506835938" y="-17" type="qcurve" smooth="yes"/>
			<point x="86.060546875" y="-17"/>
			<point x="-36.8223876953" y="274.3793945312"/>
		</contour>
	</outline>
	<anchor name="bottom" x="343" y="0"/>
	<anchor name="top" x="600" y="1000"/>
</glyph>
<glyph name="d" format="2">
	<unicode hex="0064"/>
	<advance width="1234"/>
	<outline>
		<contour>
			<point x="37.3730709356" y="311.5407714844" type="qcurve" smooth="yes"/>
			<point x="40.1764441343" y="568.1364746094"/>
			<point x="495.8566199156" y="975.6771850586"/>
			<point x="722.0168982359" y="989.9759521484" type="qcurve" smooth="yes"/>
			<point x="845.7109900327" y="989.9759521484" type="line"/>
			<point x="927.9822913023" y="1403.891418457" type="line"/>
			<point x="834.5782996031" y="1449.7778320312" type="line"/>
			<point x="852.6693640562" y="1525.869140625" type="line"/>
			<point x="1032.1908484312" y="1576.869140625" type="line"/>
			<point x="1105.8837195249" y="1539.869140625" type="line"/>
			<point x="892.9369421812" y="470" type="line"/>
			<point x="840.5506506773" y="127.4323120117" type="line"/>
			<point x="1004.7272253843" y="127.4323120117" type="line"/>
			<point x="999.7272253843" y="44" type="line"/>
			<point x="761.1798621031" y="-16" type="line"/>
			<point x="683.5258093687" y="93.0517578125" type="line"/>
			<point x="690.9738684507" y="172.8013916016" type="line"/>
			<point x="695.7698889585" y="118.8216552734"/>
			<point x="352.8727331968" y="-10"/>
			<point x="265.1935339781" y="-10" type="qcurve" smooth="yes"/>
			<point x="154.0314246031" y="-10"/>
			<point x="36.4460689825" y="145.3244628906"/>
		</contour>
		<contour>
			<point x="205.950951795" y="315.5407714844" type="qcurve" smooth="yes"/>
			<point x="205.0463171812" y="209.5420532227"/>
			<point x="243.7698889585" y="88.9085083008"/>
			<point x="325.4998083921" y="88.9085083008" type="qcurve" smooth="yes"/>
			<point x="460.6831580015" y="88.9085083008"/>
			<point x="696.1782141538" y="243.7098999023"/>
			<point x="734.2655554624" y="433.9310913086" type="qcurve" smooth="yes"/>
			<point x="811.3297034116" y="799.6239013672" type="line"/>
			<point x="795.3297034116" y="829.6239013672"/>
			<point x="733.9893713804" y="876.268371582"/>
			<point x="718.936881146" y="876.268371582" type="qcurve" smooth="yes"/>
			<point x="486.2709875913" y="876.268371582"/>
			<point x="207.8049557012" y="506.4931640625"/>
		</contour>
	</outline>
	<anchor name="bottom" x="604" y="0"/>
	<anchor name="center" x="876" y="1202"/>
	<anchor name="top" x="704" y="1534"/>
	<anchor name="topright" x="1076" y="1000"/>
	<anchor name="liga" x="1067" y="0"/>
</glyph>
<glyph name="e" format="2">
	<unicode hex="0065"/>
	<advance width="952"/>
	<outline>
		<contour>
			<point x="16.8262086633" y="499.2446289062" type="qcurve" smooth="yes"/>
			<point x="65.2019410852" y="731.8336181641"/>
			<point x="412.8168092493" y="1024.0574951172"/>
			<point x="586.9820924524" y="1024.0574951172" type="qcurve" smooth="yes"/>
			<point x="713.6669069055" y="1024.0574951172"/>
			<point x="802.7175660852" y="938.462890625"/>
			<point x="815.6371217493" y="893.3734130859" type="qcurve" smooth="yes"/>
			<point x="841.587805343" y="832.6049804688"/>
			<point x="832.8810182336" y="702.8142089844"/>
			<point x="818.3215699914" y="647.7293701172" type="qcurve"/>
			<point x="873.9260621789" y="636.4969482422" type="line"/>
			<point x="832.0198121789" y="549.8944091797" type="line"/>
			<point x="706.5753541711" y="552.3687744141"/>
			<point x="490.8103027344" y="554.8944091797"/>
			<point x="378.7505250696" y="554.8944091797" type="qcurve" smooth="yes"/>
			<point x="135.3205566406" y="552.8944091797" type="line"/>
			<point x="168.2720094446" y="646.7901611328" type="line"/>
			<point x="636.3733278039" y="654.7528076172" type="line"/>
			<point x="637.521399093" y="676.0628662109"/>
			<point x="670.2930055383" y="770.9383544922"/>
			<point x="661.3440309289" y="820.8276367188" type="qcurve" smooth="yes"/>
			<point x="656.1030641321" y="865.8197021484"/>
			<point x="590.2760377649" y="912.4090576172"/>
			<point x="538.3902955774" y="912.4090576172" type="qcurve" smooth="yes"/>
			<point x="414.4415651086" y="912.4090576172"/>
			<point x="227.8395143274" y="696.4617919922"/>
			<point x="184.3528199914" y="501.2446289062" type="qcurve" smooth="yes"/>
			<point x="143.7008424524" y="323.828125"/>
			<point x="271.2734375" y="103.7351074219"/>
			<point x="397.4428710938" y="101.0993652344" type="qcurve" smooth="yes"/>
			<point x="523.4675292969" y="98.1726074219"/>
			<point x="734.5832519531" y="215.447265625"/>
			<point x="789.5441894531" y="295.2978515625" type="qcurve"/>
			<point x="834.2693238977" y="234.767578125" type="line"/>
			<point x="842.0828004602" y="197.2766113281" type="line"/>
			<point x="765.5949707031" y="126.8549804688"/>
			<point x="503.3891601562" y="-16.9810791016"/>
			<point x="312.4951539758" y="-13.5769042969" type="qcurve" smooth="yes"/>
			<point x="153.9577636719" y="-13.9024658203"/>
			<point x="-29.8588499304" y="273.0493164062"/>
		</contour>
	</outline>
	<anchor name="bottom" x="339" y="0"/>
	<anchor name="ogonek" x="495" y="0"/>
	<anchor name="top" x="601" y="1000"/>
</glyph>
<glyph name="f" format="2">
	<unicode hex="0066"/>
	<advance width="512"/>
	<outline>
		<contour>
			<point x="-409.7379760742" y="-430.134765625" type="line" smooth="yes"/>
			<point x="-398.0836181641" y="-316.4758911133" type="line"/>
			<point x="-324.158996582" y="-316.5894775391" type="line" smooth="yes"/>
			<point x="-181.158996582" y="-315.7178955078"/>
			<point x="-38.0430908203" y="-155.1184692383"/>
			<point x="11.1717529297" y="113.4323120117" type="qcurve" smooth="yes"/>
			<point x="156.6213378906" y="910.8677978516" type="line"/>
			<point x="164.3989868164" y="950.1115722656" type="line"/>
			<point x="215.6965942383" y="1218.2482910156" type="line" smooth="yes"/>
			<point x="249.9668579102" y="1394.4644775391"/>
			<point x="422.3910522461" y="1545.2482910156"/>
			<point x="516.4475097656" y="1545.2482910156" type="qcurve" smooth="yes"/>
			<point x="586.796081543" y="1545.2482910156"/>
			<point x="664.0173339844" y="1474.2482910156"/>
			<point x="664.0173339844" y="1427.2482910156" type="qcurve" smooth="yes"/>
			<point x="664.0173339844" y="1396.2482910156"/>
			<point x="641.0173339844" y="1358.2482910156"/>
			<point x="621.0173339844" y="1358.2482910156" type="qcurve" smooth="yes"/>
			<point x="608.0173339844" y="1358.2482910156"/>
			<point x="597.0173339844" y="1372.2482910156"/>
			<point x="597.0173339844" y="1386.2482910156" type="qcurve" smooth="yes"/>
			<point x="597.0173339844" y="1386.9616699219"/>
			<point x="549.436706543" y="1424.8736572266"/>
			<point x="521.8998413086" y="1424.8736572266" type="qcurve" smooth="yes"/>
			<point x="466.7370605469" y="1424.8736572266"/>
			<point x="375.1936645508" y="1289.8843383789"/>
			<point x="354.889831543" y="1168.5181274414" type="qcurve" smooth="yes"/>
			<point x="318.7588500977" y="946.1115722656" type="line"/>
			<point x="318.7085571289" y="921.7120361328" type="line"/>
			<point x="185.190612793" y="214" type="line" smooth="yes"/>
			<point x="103.024230957" y="-221.7509765625"/>
			<point x="-82.9556274414" y="-461.134765625"/>
			<point x="-258.6997680664" y="-461.134765625" type="qcurve"/>
		</contour>
		<contour>
			<point x="-26.7935791016" y="885.0687255859" type="line"/>
			<point x="-34.9267578125" y="948.2447509766" type="line"/>
			<point x="176.7545166016" y="990.2447509766" type="line"/>
			<point x="520.1728515625" y="990.2447509766" type="line"/>
			<point x="508.0396728516" y="886.0687255859" type="line"/>
			<point x="264.1560668945" y="893.0687255859" type="line"/>
			<point x="189.2068481445" y="875.0687255859" type="line"/>
		</contour>
	</outline>
	<anchor name="bottom" x="217" y="0"/>
	<anchor name="top" x="554" y="1536"/>
</glyph>
<glyph name="g" format="2">
	<unicode hex="0067"/>
	<advance width="1141"/>
	<outline>
		<contour>
			<point x="40.3873908721" y="286" type="qcurve" smooth="yes"/>
			<point x="42.2413947783" y="567.8120117188"/>
			<point x="460.4591071806" y="1000.7596435547"/>
			<point x="682.7587287627" y="1000.7596435547" type="qcurve" smooth="yes"/>
			<point x="777.4879768096" y="1000.7596435547"/>
			<point x="808.3634650908" y="964.7596435547"/>
			<point x="832.9328010283" y="947.7596435547" type="qcurve"/>
			<point x="869.1124885283" y="1021.7596435547" type="line"/>
			<point x="938.5101936064" y="1021.7596435547" type="line"/>
			<point x="985.4081428252" y="858.7596435547" type="line"/>
			<point x="932.1102912627" y="632" type="line" smooth="yes"/>
			<point x="882.1643684111" y="418.9459228516"/>
			<point x="841.4491584502" y="246.9091796875"/>
			<point x="798.8798225127" y="48.84765625" type="qcurve" smooth="yes"/>
			<point x="738.8620002471" y="-232.4892578125"/>
			<point x="408.1530158721" y="-480.1806640625"/>
			<point x="219.4384162627" y="-480.1806640625" type="qcurve"/>
			<point x="80.2406623564" y="-440.1806640625" type="line"/>
			<point x="81.8153693877" y="-341.5546264648" type="line"/>
			<point x="258.6798713408" y="-332.0545043945" type="line" smooth="yes"/>
			<point x="393.0915534697" y="-324.8313598633"/>
			<point x="591.1351325713" y="-152.9763793945"/>
			<point x="647.3136604033" y="68.9161987305" type="qcurve" smooth="yes"/>
			<point x="674.2344367705" y="165.7573852539" type="line"/>
			<point x="645.8482063017" y="98.0891723633"/>
			<point x="409.7391975127" y="-13"/>
			<point x="270.7684943877" y="-13" type="qcurve" smooth="yes"/>
			<point x="177.8727424346" y="-13"/>
			<point x="39.4603889189" y="130"/>
		</contour>
		<contour>
			<point x="203.4909064971" y="264" type="qcurve" smooth="yes"/>
			<point x="202.5639045439" y="170.3317871094"/>
			<point x="240.4590461455" y="94.4638061523"/>
			<point x="329.8970344267" y="94.4638061523" type="qcurve" smooth="yes"/>
			<point x="430.1506965361" y="94.4638061523"/>
			<point x="693.8805549346" y="253.2211914062"/>
			<point x="732.9678962431" y="442.2426147461" type="qcurve" smooth="yes"/>
			<point x="811.8222053252" y="812.7845458984" type="line"/>
			<point x="804.7556159697" y="837.4515991211"/>
			<point x="768.281128665" y="886.1852416992"/>
			<point x="632.8433845244" y="886.1852416992" type="qcurve" smooth="yes"/>
			<point x="451.6024177275" y="886.1852416992"/>
			<point x="204.4179084502" y="499.7554931641"/>
		</contour>
	</outline>
	<anchor name="bottom" x="324" y="-416"/>
	<anchor name="top" x="603" y="1000"/>
</glyph>
<glyph name="h" format="2">
	<unicode hex="0068"/>
	<advance width="1243"/>
	<outline>
		<contour>
			<point x="73.7937011719" y="-18.9487304688" type="line"/>
			<point x="24.3193359375" y="81" type="line"/>
			<point x="162.8579101562" y="591" type="line"/>
			<point x="310.7591552734" y="1410.9130859375" type="line"/>
			<point x="187.9233398438" y="1450.9130859375" type="line"/>
			<point x="206.0144042969" y="1522.0043945312" type="line"/>
			<point x="413.5358886719" y="1576.0043945312" type="line"/>
			<point x="485.4338378906" y="1508.6450195312" type="line"/>
			<point x="319.4357910156" y="588" type="line"/>
			<point x="213.7563476562" y="125.2309570312" type="line"/>
			<point x="288.5383300781" y="9.4873046875" type="line"/>
		</contour>
		<contour>
			<point x="734.5544433594" y="-27" type="line"/>
			<point x="653.5544433594" y="72" type="line"/>
			<point x="786.7593383789" y="699.6520996094" type="line" smooth="yes"/>
			<point x="807.4166870117" y="798.7250366211"/>
			<point x="746.9190673828" y="880.6027832031"/>
			<point x="632.7252197266" y="880.6027832031" type="qcurve" smooth="yes"/>
			<point x="562.3516235352" y="880.6027832031"/>
			<point x="318.9320068359" y="693.0740356445"/>
			<point x="281.2689208984" y="619.5549316406" type="qcurve"/>
			<point x="272.7379150391" y="723.7844238281" type="line"/>
			<point x="316.9083862305" y="798.1586914062"/>
			<point x="618.6050415039" y="1019.1115722656"/>
			<point x="704.6452026367" y="1019.1115722656" type="qcurve" smooth="yes"/>
			<point x="832.6994018555" y="1019.1115722656"/>
			<point x="981.6931762695" y="850.0459594727"/>
			<point x="954.2243041992" y="715.8036499023" type="qcurve" smooth="yes"/>
			<point x="831.0502319336" y="117.0004882812" type="line"/>
			<point x="975.4995117188" y="138.0004882812" type="line"/>
			<point x="975.4995117188" y="50" type="line"/>
		</contour>
	</outline>
	<anchor name="bottom" x="420" y="0"/>
	<anchor name="center" x="347" y="1202"/>
	<anchor name="top" x="424" y="1534"/>
</glyph>
<glyph name="k" format="2">
	<unicode hex="006B"/>
	<advance width="989"/>
	<outline>
		<contour>
			<point x="478.1774291992" y="466.9520263672" type="line"/>
			<point x="163.9975585938" y="176.2277832031" type="line"/>
			<point x="143.6231079102" y="275.1407470703" type="line"/>
			<point x="697.8625488281" y="740.0766601562" type="line"/>
			<point x="743.5924072266" y="812.2352294922"/>
			<point x="694.9331665039" y="902.1098632812"/>
			<point x="677.9158935547" y="902.1098632812" type="qcurve" smooth="yes"/>
			<point x="565.2583618164" y="902.1098632812"/>
			<point x="358.087097168" y="691.5473632812"/>
			<point x="318.2368774414" y="601.7114868164" type="qcurve"/>
			<point x="320.10546875" y="624.7774658203" type="line"/>
			<point x="222.3461914062" y="124.7565917969" type="line"/>
			<point x="297.1281738281" y="8.3334960938" type="line"/>
			<point x="82.8579101562" y="-18" type="line"/>
			<point x="33.8579101562" y="81" type="line"/>
			<point x="161.8579101562" y="588" type="line"/>
			<point x="311.327331543" y="1403.0277709961" type="line"/>
			<point x="72.7136230469" y="1451.7778320312" type="line"/>
			<point x="90.8046875" y="1522.869140625" type="line"/>
			<point x="413.1127929688" y="1572.869140625" type="line"/>
			<point x="485.0107421875" y="1504.5610351562" type="line"/>
			<point x="344.0147094727" y="788.5824584961" type="line"/>
			<point x="413.2506103516" y="852.9105224609"/>
			<point x="642.5733642578" y="1017.8411865234"/>
			<point x="722.9293212891" y="1017.8411865234" type="qcurve" smooth="yes"/>
			<point x="762.9612426758" y="1017.8411865234"/>
			<point x="896.5037841797" y="888.1367797852"/>
			<point x="868.6065063477" y="800.0397338867" type="qcurve" smooth="yes"/>
			<point x="854.9231567383" y="732.7312011719" type="line"/>
			<point x="844.5163574219" y="712.1533203125" type="line"/>
			<point x="470.9049682617" y="463.5316772461" type="line"/>
		</contour>
		<contour>
			<point x="535.8217163086" y="579.1612548828" type="line"/>
			<point x="787.419128418" y="149.9750976562" type="line"/>
			<point x="928.5278930664" y="154.9750976562" type="line"/>
			<point x="928.5278930664" y="71.974609375" type="line"/>
			<point x="722.5747680664" y="-6" type="line" smooth="yes"/>
			<point x="701.727722168" y="-14.0531005859"/>
			<point x="661.2545166016" y="9.8974609375"/>
			<point x="605.1430664062" y="115" type="qcurve" smooth="yes"/>
			<point x="402.1574707031" y="463.2213134766" type="line"/>
		</contour>
	</outline>
	<anchor name="bottom" x="448" y="0"/>
	<anchor name="top" x="578" y="1534"/>
</glyph>
<glyph name="l" format="2">
	<unicode hex="006C"/>
	<advance width="658"/>
	<outline>
		<contour>
			<point x="111.9526367188" y="-14" type="line"/>
			<point x="32.5036621094" y="125.0646972656" type="line"/>
			<point x="171.1831054688" y="728" type="line"/>
			<point x="301.2807006836" y="1403.4595947266" type="line"/>
			<point x="182.8767089844" y="1451.7778320312" type="line"/>
			<point x="200.9677734375" y="1522.869140625" type="line"/>
			<point x="417.4892578125" y="1583.9333496094" type="line"/>
			<point x="489.3872070312" y="1513.099609375" type="line"/>
			<point x="324.2353515625" y="714" type="line"/>
			<point x="218.14453125" y="146.0004882812" type="line"/>
			<point x="338.0256347656" y="146.0004882812" type="line"/>
			<point x="341.0256347656" y="64" type="line"/>
		</contour>
	</outline>
	<anchor name="bottom" x="201" y="0"/>
	<anchor name="center" x="236" y="770"/>
	<anchor name="top" x="436" y="1534"/>
	<anchor name="topright" x="492" y="1000"/>
	<anchor name="centerright" x="707" y="742"/>
	<anchor name="liga" x="567" y="0"/>
</glyph>
<glyph name="m" format="2">
	<unicode hex="006D"/>
	<advance width="1819"/>
	<outline>
		<contour>
			<point x="76.689453125" y="-30.3334960938" type="line"/>
			<point x="17.9458007812" y="65.8203125" type="line"/>
			<point x="153.7407226562" y="586" type="line"/>
			<point x="193.3606567383" y="848.2787475586" type="line"/>
			<point x="52.9113769531" y="818.2787475586" type="line"/>
			<point x="46.7750244141" y="906.1656494141" type="line"/>
			<point x="246.3861083984" y="1007.1656494141" type="line"/>
			<point x="337.9888916016" y="1007.1656494141" type="line"/>
			<point x="331.4623413086" y="718.3856201172" type="line"/>
			<point x="315.6904296875" y="588" type="line"/>
			<point x="200.6904296875" y="111" type="line"/>
			<point x="280.6904296875" y="0" type="line"/>
		</contour>
		<contour>
			<point x="674.8941040039" y="-19.5256347656" type="line"/>
			<point x="620.8941040039" y="82.4743652344" type="line"/>
			<point x="771.4491577148" y="703.0113525391" type="line" smooth="yes"/>
			<point x="790.9849853516" y="780.2041015625"/>
			<point x="784.9943237305" y="878.7965087891"/>
			<point x="724.6724853516" y="878.7965087891" type="qcurve" smooth="yes"/>
			<point x="635.0451660156" y="878.7965087891"/>
			<point x="306.9592285156" y="694.196105957"/>
			<point x="258.2825927734" y="606.8424072266" type="qcurve"/>
			<point x="252.1888427734" y="707.6998291016" type="line"/>
			<point x="378.2786865234" y="842.2779541016"/>
			<point x="732.6541137695" y="1019.1656494141"/>
			<point x="836.9011230469" y="1019.1656494141" type="qcurve" smooth="yes"/>
			<point x="907.3937988281" y="1019.1656494141"/>
			<point x="970.0477294922" y="854.5680541992"/>
			<point x="923.5145874023" y="672.6400146484" type="qcurve" smooth="yes"/>
			<point x="804.7412719727" y="129.6157226562" type="line"/>
			<point x="871.2285766602" y="22.2309570312" type="line"/>
		</contour>
		<contour>
			<point x="1336.1642456055" y="-30.1667480469" type="line"/>
			<point x="1242.6127319336" y="107.2055664062" type="line"/>
			<point x="1371.2192993164" y="696.2933349609" type="line" smooth="yes"/>
			<point x="1381.9534301758" y="745.7984008789"/>
			<point x="1347.6362304688" y="880.6568603516"/>
			<point x="1285.991027832" y="880.6568603516" type="qcurve" smooth="yes"/>
			<point x="1176.6872558594" y="880.6568603516"/>
			<point x="908.7470703125" y="683.1587524414"/>
			<point x="858.3656616211" y="595.4617919922" type="qcurve"/>
			<point x="847.0397338867" y="703.1656494141" type="line"/>
			<point x="960.8225097656" y="829.1209716797"/>
			<point x="1268.2554321289" y="1019.1656494141"/>
			<point x="1392.8438720703" y="1019.1656494141" type="qcurve" smooth="yes"/>
			<point x="1470.8837890625" y="1019.1656494141"/>
			<point x="1564.0467529297" y="851.8930664062"/>
			<point x="1527.0664672852" y="672.1656494141" type="qcurve" smooth="yes"/>
			<point x="1406.4674072266" y="117.0004882812" type="line"/>
			<point x="1550.9166870117" y="138.0004882812" type="line"/>
			<point x="1550.9166870117" y="50" type="line"/>
		</contour>
	</outline>
	<anchor name="bottom" x="958" y="0"/>
	<anchor name="top" x="958" y="1000"/>
	<anchor name="cy_descender" x="1572" y="134"/>
</glyph>
<glyph name="n" format="2">
	<unicode hex="006E"/>
	<advance width="1160"/>
	<outline>
		<contour>
			<point x="80.8487548828" y="-18" type="line"/>
			<point x="28.8487548828" y="61.2966308594" type="line"/>
			<point x="147.9970703125" y="592" type="line"/>
			<point x="193.3606567383" y="850.2246704102" type="line"/>
			<point x="52.9113769531" y="818.2246704102" type="line"/>
			<point x="46.7750244141" y="906.1115722656" type="line"/>
			<point x="238.3731689453" y="1000.2598876953" type="line"/>
			<point x="331.2452392578" y="997.2598876953" type="line"/>
			<point x="318.5662841797" y="691.1115722656" type="line"/>
			<point x="324.5662841797" y="663.1115722656" type="line"/>
			<point x="204.8497314453" y="80.5191040039" type="line"/>
			<point x="245.4429931641" y="-4.9258422852" type="line"/>
		</contour>
		<contour>
			<point x="701.3607788086" y="-16.1631469727" type="line"/>
			<point x="665.7675170898" y="72" type="line"/>
			<point x="784.7290039062" y="681.4694213867" type="line" smooth="yes"/>
			<point x="805.0840454102" y="783.7899169922"/>
			<point x="757.1036376953" y="876.7383422852"/>
			<point x="668.2750854492" y="876.7383422852" type="qcurve" smooth="yes"/>
			<point x="558.333190918" y="876.7383422852"/>
			<point x="246.9686279297" y="645.5665283203"/>
			<point x="262.4900512695" y="558.4028320312" type="qcurve"/>
			<point x="249.596862793" y="656.962890625" type="line"/>
			<point x="263.8519287109" y="770.7850341797"/>
			<point x="625.8637084961" y="1019.1115722656"/>
			<point x="748.9957275391" y="1019.1115722656" type="qcurve" smooth="yes"/>
			<point x="866.9989624023" y="1019.1115722656"/>
			<point x="987.5350341797" y="863.6672363281"/>
			<point x="971.1803588867" y="787.3762817383" type="qcurve" smooth="yes"/>
			<point x="827.8859863281" y="117.0004882812" type="line"/>
			<point x="967.9121704102" y="138.0004882812" type="line"/>
			<point x="970.9121704102" y="50" type="line"/>
		</contour>
	</outline>
	<anchor name="bottom" x="522" y="0"/>
	<anchor name="top" x="602" y="1000"/>
	<anchor name="liga" x="1173" y="0"/>
</glyph>
<glyph name="o" format="2">
	<unicode hex="006F"/>
	<advance width="1067"/>
	<outline>
		<contour>
			<point x="15.4587748664" y="555.0017089844" type="qcurve" smooth="yes"/>
			<point x="53.8114404381" y="771.3861083984"/>
			<point x="374.4209375085" y="1037.0034179688"/>
			<point x="574.3816308678" y="1022.0034179688" type="qcurve" smooth="yes"/>
			<point x="795.8996972741" y="1006.0223388672"/>
			<point x="973.42154786" y="704.6240234375"/>
			<point x="934.6675151008" y="476.0017089844" type="qcurve" smooth="yes"/>
			<point x="896.482094735" y="256.5632324219"/>
			<point x="571.6189355553" y="-31"/>
			<point x="368.5813378991" y="-16" type="qcurve" smooth="yes"/>
			<point x="148.9372949303" y="-0.0189208984"/>
			<point x="-32.252280265" y="304.3793945312"/>
		</contour>
		<contour>
			<point x="197.2383769172" y="551.7793579102" type="qcurve" smooth="yes"/>
			<point x="162.2638039018" y="376.6048591506"/>
			<point x="241.9126933234" y="98.1734008789"/>
			<point x="392.8089945929" y="83.7753295898" type="qcurve" smooth="yes"/>
			<point x="559.5257304328" y="70.7753295898"/>
			<point x="734.7673644387" y="341.1087341885"/>
			<point x="755.2271464484" y="478.852355957" type="qcurve" smooth="yes"/>
			<point x="781.459161483" y="637.4450613907"/>
			<point x="710.2650492804" y="905.094909668"/>
			<point x="553.6507914679" y="919.094909668" type="qcurve" smooth="yes"/>
			<point x="412.369968714" y="932.094909668"/>
			<point x="227.7083253079" y="708.3166854944"/>
		</contour>
	</outline>
	<anchor name="bottom" x="358" y="0"/>
	<anchor name="center" x="461" y="500"/>
	<anchor name="ogonek" x="514" y="0"/>
	<anchor name="top" x="584" y="1000"/>
	<anchor name="topright" x="663" y="1000"/>
	<anchor name="GRKtop" x="584" y="1000"/>
	<anchor name="yu_dash" x="83" y="498"/>
</glyph>
<glyph name="p" format="2">
	<unicode hex="0070"/>
	<advance width="1083"/>
	<outline>
		<contour>
			<point x="-68.2016601562" y="-391.0576171875" type="line"/>
			<point x="141.9052734375" y="449" type="line"/>
			<point x="201.0296630859" y="705.4577636719" type="line"/>
			<point x="73.0809326172" y="964.2397460938" type="line"/>
			<point x="169.3123779297" y="1022.3811035156" type="line"/>
			<point x="239.7100830078" y="1022.3811035156" type="line"/>
			<point x="340.7436523438" y="804.9385986328" type="line"/>
			<point x="407.2816162109" y="881.4916992188"/>
			<point x="641.1317138672" y="1024.3811035156"/>
			<point x="762.9930419922" y="1024.3811035156" type="qcurve" smooth="yes"/>
			<point x="824.8823242188" y="1024.3811035156"/>
			<point x="951.7337646484" y="840.0291748047"/>
			<point x="949.8797607422" y="685.6781005859" type="qcurve" smooth="yes"/>
			<point x="948.0257568359" y="414.1364746094"/>
			<point x="539.0219726562" y="9"/>
			<point x="375.1274414062" y="9" type="qcurve" smooth="yes"/>
			<point x="303.521484375" y="9"/>
			<point x="205.9665527344" y="35"/>
			<point x="196.9445800781" y="43" type="qcurve"/>
			<point x="99.4585571289" y="-343.897277832" type="line"/>
			<point x="239.8625488281" y="-393.0563964844" type="line"/>
			<point x="212.525390625" y="-470.1477050781" type="line"/>
			<point x="60.2219238281" y="-491.8913574219" type="line"/>
		</contour>
		<contour>
			<point x="239.2900390625" y="211.7212524414" type="line"/>
			<point x="227.9946899414" y="158.2414550781"/>
			<point x="365.6192626953" y="122.2188720703"/>
			<point x="395.9136352539" y="123.2188720703" type="qcurve" smooth="yes"/>
			<point x="488.944152832" y="128.2188720703"/>
			<point x="761.6242675781" y="424.766418457"/>
			<point x="763.4782714844" y="645.0799560547" type="qcurve" smooth="yes"/>
			<point x="765.3322753906" y="763.462097168"/>
			<point x="713.7024536133" y="899.9172973633"/>
			<point x="646.2285766602" y="898.9172973633" type="qcurve" smooth="yes"/>
			<point x="548.2085571289" y="897.9172973633"/>
			<point x="378.8005981445" y="754.0504760742"/>
			<point x="343.5664672852" y="682.5606079102" type="qcurve"/>
			<point x="290.9445800781" y="447" type="line"/>
		</contour>
	</outline>
	<anchor name="bottom" x="599" y="0"/>
	<anchor name="top" x="599" y="1000"/>
</glyph>
<glyph name="q" format="2">
	<unicode hex="0071"/>
	<advance width="1138"/>
	<outline>
		<contour>
			<point x="35.3984985352" y="281" type="qcurve" smooth="yes"/>
			<point x="35.3984985352" y="548.2987060547"/>
			<point x="372.4649047852" y="991.0300292969"/>
			<point x="610.3009643555" y="991.0300292969" type="qcurve" smooth="yes"/>
			<point x="632.4398803711" y="991.0300292969"/>
			<point x="755.3746948242" y="971.0300292969"/>
			<point x="783.1776733398" y="962.0300292969" type="qcurve"/>
			<point x="821.678894043" y="1008.0300292969" type="line"/>
			<point x="883.4867553711" y="1008.0300292969" type="line"/>
			<point x="897.3717651367" y="761.0932617188" type="line"/>
			<point x="824.7764282227" y="447" type="line"/>
			<point x="684.7963256836" y="-310.2390136719" type="line"/>
			<point x="792.9048461914" y="-366.9663085938" type="line"/>
			<point x="765.5676879883" y="-444.0576171875" type="line"/>
			<point x="636.1616821289" y="-472.4936523438" type="line"/>
			<point x="514.7893676758" y="-372.6599121094" type="line"/>
			<point x="634.8396606445" y="194" type="line"/>
			<point x="626.8396606445" y="195" type="line"/>
			<point x="595.3596801758" y="114"/>
			<point x="383.5462036133" y="-11"/>
			<point x="258.4451293945" y="-11" type="qcurve" smooth="yes"/>
			<point x="155.0752563477" y="-11"/>
			<point x="35.3984985352" y="133"/>
		</contour>
		<contour>
			<point x="205.873840332" y="289" type="qcurve" smooth="yes"/>
			<point x="205.873840332" y="181.998840332"/>
			<point x="245.9705200195" y="92.752746582"/>
			<point x="341.8455200195" y="92.752746582" type="qcurve" smooth="yes"/>
			<point x="470.9922485352" y="92.752746582"/>
			<point x="641.9396972656" y="262.7764892578"/>
			<point x="666.0447387695" y="418" type="qcurve" smooth="yes"/>
			<point x="744.8639526367" y="804.2332763672" type="line"/>
			<point x="719.7909545898" y="832.2332763672"/>
			<point x="674.6591186523" y="880.2332763672"/>
			<point x="633.3082885742" y="880.2332763672" type="qcurve" smooth="yes"/>
			<point x="459.37109375" y="880.2332763672"/>
			<point x="205.873840332" y="500.4556274414"/>
		</contour>
	</outline>
	<anchor name="bottom" x="594" y="0"/>
	<anchor name="top" x="594" y="1000"/>
</glyph>
<glyph name="r" format="2">
	<unicode hex="0072"/>
	<advance width="783"/>
	<outline>
		<contour>
			<point x="72.7646484375" y="-14" type="line"/>
			<point x="24.7646484375" y="81" type="line"/>
			<point x="153.7775878906" y="548" type="line"/>
			<point x="195.1282348633" y="850.8469238281" type="line"/>
			<point x="60.6789550781" y="818.2787475586" type="line"/>
			<point x="51.5426025391" y="904.1656494141" type="line"/>
			<point x="276.7181396484" y="1008.1656494141" type="line"/>
			<point x="352.7181396484" y="1008.1656494141" type="line"/>
			<point x="325.8048095703" y="766.8619384766" type="line"/>
			<point x="316.0775146484" y="596.1656494141" type="line"/>
			<point x="209.8502807617" y="135.2731933594" type="line"/>
			<point x="341.2995605469" y="150.0004882812" type="line"/>
			<point x="341.2995605469" y="66" type="line"/>
		</contour>
		<contour>
			<point x="671.9202270508" y="722.1656494141" type="line"/>
			<point x="689.9202270508" y="892.1685791016" type="line"/>
			<point x="601.3143920898" y="892.1685791016"/>
			<point x="394.1358642578" y="788.5836181641"/>
			<point x="217.7718505859" y="582.5161132812" type="qcurve"/>
			<point x="248.2999267578" y="727.8989257812" type="line"/>
			<point x="327.0050048828" y="800.2191162109"/>
			<point x="604.1018676758" y="1026.1656494141"/>
			<point x="709.7290649414" y="1026.1656494141" type="qcurve" smooth="yes"/>
			<point x="763.873840332" y="1026.1656494141"/>
			<point x="826.741027832" y="957.5887451172"/>
			<point x="826.741027832" y="900.1656494141" type="qcurve" smooth="yes"/>
			<point x="826.741027832" y="815.1656494141"/>
			<point x="754.4588012695" y="722.1656494141"/>
			<point x="709.9202270508" y="722.1656494141" type="qcurve" smooth="yes"/>
		</contour>
	</outline>
	<anchor name="bottom" x="282" y="0"/>
	<anchor name="top" x="486" y="1000"/>
</glyph>
<glyph name="s" format="2">
	<unicode hex="0073"/>
	<advance width="846"/>
	<outline>
		<contour>
			<point x="25.7194824219" y="178" type="qcurve" smooth="yes"/>
			<point x="25.7194824219" y="258"/>
			<point x="141.0405273438" y="310"/>
			<point x="209.6049804688" y="310" type="qcurve" smooth="yes"/>
			<point x="244.0922851562" y="310" type="line"/>
			<point x="244.0922851562" y="135" type="line" smooth="yes"/>
			<point x="244.0922851562" y="107.9096679688"/>
			<point x="279.5151367188" y="84.6861572266"/>
			<point x="338.048034668" y="84.6861572266" type="qcurve" smooth="yes"/>
			<point x="426.811706543" y="84.6861572266"/>
			<point x="546.930480957" y="185.2817382812"/>
			<point x="546.930480957" y="240.1645507812" type="qcurve" smooth="yes"/>
			<point x="546.930480957" y="305.5396728516"/>
			<point x="493.8645019531" y="401.4788818359"/>
			<point x="360.0522460938" y="480.164855957" type="qcurve" smooth="yes"/>
			<point x="248.5055541992" y="553.5405273438"/>
			<point x="134.8643188477" y="669.9868164062"/>
			<point x="141.338684082" y="772.7315673828" type="qcurve" smooth="yes"/>
			<point x="148.8130493164" y="889.1168212891"/>
			<point x="331.9428710938" y="1022.1115722656"/>
			<point x="458.0631103516" y="1022.1115722656" type="qcurve" smooth="yes"/>
			<point x="614.8492431641" y="1022.1115722656"/>
			<point x="744.71875" y="919.1115722656"/>
			<point x="744.71875" y="847.1115722656" type="qcurve" smooth="yes"/>
			<point x="744.71875" y="783.1115722656"/>
			<point x="668.7954101562" y="735.1115722656"/>
			<point x="611.0258789062" y="735.1115722656" type="qcurve" smooth="yes"/>
			<point x="567.1154785156" y="735.1115722656" type="line"/>
			<point x="553.3588867188" y="880.0732421875" type="line" smooth="yes"/>
			<point x="553.3588867188" y="883.8081665039"/>
			<point x="534.6837158203" y="907.4920043945"/>
			<point x="438.8467407227" y="905.4920043945" type="qcurve" smooth="yes"/>
			<point x="396.8466796875" y="907.4920043945"/>
			<point x="293.2636108398" y="845.6958007812"/>
			<point x="293.2636108398" y="779.4717407227" type="qcurve" smooth="yes"/>
			<point x="293.2636108398" y="724.0314331055"/>
			<point x="379.9506835938" y="662.619934082"/>
			<point x="455.2864990234" y="611.2008666992" type="qcurve" smooth="yes"/>
			<point x="575.9877319336" y="538.3877563477"/>
			<point x="701.0064086914" y="375.262878418"/>
			<point x="701.0064086914" y="256.8927001953" type="qcurve"/>
			<point x="699.7106933594" y="140.6940917969"/>
			<point x="496.9209594727" y="-20"/>
			<point x="300.8104858398" y="-20" type="qcurve" smooth="yes"/>
			<point x="175.5093994141" y="-20"/>
			<point x="25.7194824219" y="83"/>
		</contour>
	</outline>
	<anchor name="bottom" x="282" y="0"/>
	<anchor name="top" x="446" y="1000"/>
</glyph>
<glyph name="t" format="2">
	<unicode hex="0074"/>
	<advance width="556"/>
	<outline>
		<contour>
			<point x="130.6326904297" y="-15" type="line"/>
			<point x="23.2091064453" y="51" type="line"/>
			<point x="107.2091064453" y="513" type="line"/>
			<point x="165.4281005859" y="864.8505249023" type="line"/>
			<point x="2.1905517578" y="880.6454467773" type="line"/>
			<point x="13.4569091797" y="940.6217041016" type="line"/>
			<point x="73.7357788086" y="954.3394775391"/>
			<point x="267.6615600586" y="1243.1354370117"/>
			<point x="275.1343383789" y="1245.1115722656" type="qcurve"/>
			<point x="358.6882324219" y="1245.1115722656" type="line"/>
			<point x="379.0729980469" y="1190.40625" type="line"/>
			<point x="260.0946044922" y="524" type="line"/>
			<point x="209.836730957" y="118.114074707" type="line"/>
			<point x="382.2142333984" y="138.114074707" type="line"/>
			<point x="382.2142333984" y="57" type="line"/>
		</contour>
		<contour>
			<point x="254.0025634766" y="888.5562744141" type="line"/>
			<point x="290.3795166016" y="988.3767700195" type="line"/>
			<point x="558.0463867188" y="999.0426635742" type="line"/>
			<point x="542.3353271484" y="894.5562744141" type="line"/>
		</contour>
	</outline>
	<anchor name="bottom" x="149" y="0"/>
	<anchor name="center" x="262" y="622"/>
	<anchor name="top" x="322" y="1179"/>
	<anchor name="topright" x="600" y="920"/>
</glyph>
<glyph name="u" format="2">
	<unicode hex="0075"/>
	<advance width="1243"/>
	<outline>
		<contour>
			<point x="801.0610351562" y="-10" type="line"/>
			<point x="712.9838867188" y="120.8466796875" type="line"/>
			<point x="702.2445068359" y="301.1094360352" type="line"/>
			<point x="814.7313232422" y="884.9887695312" type="line"/>
			<point x="761.7825927734" y="991.3093261719" type="line"/>
			<point x="932.8348388672" y="1029.2197265625" type="line"/>
			<point x="998.0015869141" y="930.2197265625" type="line"/>
			<point x="863.3030395508" y="362" type="line"/>
			<point x="850.7515869141" y="129.5686645508" type="line"/>
			<point x="963.3599853516" y="129.5686645508" type="line"/>
			<point x="964.2236328125" y="52" type="line"/>
		</contour>
		<contour>
			<point x="79.1701660156" y="272" type="qcurve" smooth="yes"/>
			<point x="197.1748657227" y="865.7646484375" type="line"/>
			<point x="80.7255859375" y="862.7646484375" type="line"/>
			<point x="80.5892333984" y="943.2197265625" type="line"/>
			<point x="195.2003173828" y="1010.2197265625" type="line"/>
			<point x="280.7005615234" y="1010.2197265625" type="line"/>
			<point x="363.6239013672" y="908.7448730469" type="line"/>
			<point x="230.712097168" y="246.3329467773" type="line" smooth="yes"/>
			<point x="216.5022583008" y="180.75390625"/>
			<point x="300.8318481445" y="105.3746337891"/>
			<point x="372.3170776367" y="105.3746337891" type="qcurve" smooth="yes"/>
			<point x="452.2891845703" y="105.3746337891"/>
			<point x="821.7252197266" y="367.5201416016"/>
			<point x="806.0210571289" y="504.3650512695" type="qcurve"/>
			<point x="816.6218261719" y="356.2732543945" type="line"/>
			<point x="780.0111694336" y="250.2512817383"/>
			<point x="412.5685424805" y="-7"/>
			<point x="244.5718383789" y="-7" type="qcurve" smooth="yes"/>
			<point x="166.7015991211" y="-7"/>
			<point x="49.2875366211" y="123.0444946289"/>
		</contour>
	</outline>
	<anchor name="bottom" x="404" y="0"/>
	<anchor name="ogonek" x="871" y="20"/>
	<anchor name="top" x="572" y="1000"/>
	<anchor name="topright" x="915" y="1000"/>
	<anchor name="cy_descender" x="1018" y="134"/>
</glyph>
<glyph name="v" format="2">
	<unicode hex="0076"/>
	<advance width="922"/>
	<outline>
		<contour>
			<point x="254.3782958984" y="-8" type="line"/>
			<point x="194.8444824219" y="483.2568359375" type="line"/>
			<point x="146.8119506836" y="836.0100708008" type="line"/>
			<point x="69.3774414062" y="834.7373657227" type="line"/>
			<point x="70.2410888672" y="921.6242675781" type="line"/>
			<point x="231.8605957031" y="1009.1115722656" type="line"/>
			<point x="293.3225097656" y="1009.1115722656" type="line"/>
			<point x="342.1422119141" y="537.4501953125" type="line"/>
			<point x="385.0184936523" y="222.6702880859" type="line"/>
			<point x="390.91015625" y="159.7245483398" type="line"/>
			<point x="405.8646240234" y="159.7245483398" type="line"/>
			<point x="452.9320678711" y="255.6048583984" type="line"/>
			<point x="621.9356689453" y="487.4285888672"/>
			<point x="701.9912719727" y="643.7956542969"/>
			<point x="701.9912719727" y="700.6602783203" type="qcurve" smooth="yes"/>
			<point x="701.9912719727" y="776.9650878906"/>
			<point x="583.0217895508" y="905.9603271484"/>
			<point x="583.0217895508" y="943.2857666016" type="qcurve" smooth="yes"/>
			<point x="583.0217895508" y="974.0432128906"/>
			<point x="636.6549072266" y="1043.9159545898"/>
			<point x="690.3754882812" y="1043.9159545898" type="qcurve" smooth="yes"/>
			<point x="751.3742675781" y="1043.9159545898"/>
			<point x="830.879699707" y="938.9133911133"/>
			<point x="824.879699707" y="831.9234619141" type="qcurve" smooth="yes"/>
			<point x="815.879699707" y="736.4686279297"/>
			<point x="633.8076171875" y="365.3728637695"/>
			<point x="383.1726074219" y="-8" type="qcurve"/>
		</contour>
	</outline>
	<anchor name="bottom" x="513" y="0"/>
	<anchor name="top" x="513" y="1000"/>
</glyph>
<glyph name="w" format="2">
	<unicode hex="0077"/>
	<advance width="1409"/>
	<outline>
		<contour>
			<point x="272.0645141602" y="-8" type="line"/>
			<point x="188.0242919922" y="537.1284790039" type="line"/>
			<point x="130.7943115234" y="847.2246704102" type="line"/>
			<point x="50.9584960938" y="844.2246704102" type="line"/>
			<point x="53.8221435547" y="931.1115722656" type="line"/>
			<point x="221.9936523438" y="1009.1115722656" type="line"/>
			<point x="292.6944580078" y="1009.1115722656" type="line"/>
			<point x="333.6442260742" y="620.428527832" type="line"/>
			<point x="390.6156616211" y="217.5435180664" type="line"/>
			<point x="392.6754760742" y="139.3438110352" type="line"/>
			<point x="398.6754760742" y="139.3438110352" type="line"/>
			<point x="443.7465209961" y="236.7006225586" type="line"/>
			<point x="476.4208374023" y="318.1337890625"/>
			<point x="642.4954223633" y="530.3807373047"/>
			<point x="634.9663696289" y="577.2037963867" type="qcurve"/>
			<point x="594.4698486328" y="845.8973999023" type="line"/>
			<point x="563.1005249023" y="842.5923461914" type="line"/>
			<point x="565.2022094727" y="930.2161254883" type="line"/>
			<point x="675.5384521484" y="1008.2161254883" type="line"/>
			<point x="739.3873291016" y="1008.2161254883" type="line"/>
			<point x="793.3129272461" y="575.7523803711" type="line"/>
			<point x="850.0073852539" y="216.2262573242" type="line"/>
			<point x="853.3564453125" y="142.5675048828" type="line"/>
			<point x="859.3564453125" y="142.5675048828" type="line"/>
			<point x="921.0563354492" y="241.387878418" type="line"/>
			<point x="1087.28125" y="454.5811157227"/>
			<point x="1211.0368652344" y="763.9214477539"/>
			<point x="1201.5495605469" y="839.1922607422" type="qcurve" smooth="yes"/>
			<point x="1192.0622558594" y="876.5708007812"/>
			<point x="1086.3947753906" y="891.9060058594"/>
			<point x="1087.4460449219" y="921.1623535156" type="qcurve" smooth="yes"/>
			<point x="1088.4973144531" y="968.021484375"/>
			<point x="1160.0617675781" y="1044.1115722656"/>
			<point x="1229.9338378906" y="1044.1115722656" type="qcurve" smooth="yes"/>
			<point x="1300.0751953125" y="973.2614746094"/>
			<point x="1389.1398925781" y="968.8806152344"/>
			<point x="1389.1398925781" y="900.7521972656" type="qcurve" smooth="yes"/>
			<point x="1389.1398925781" y="828.7055664062"/>
			<point x="1245.16015625" y="396.4075317383"/>
			<point x="865.2369995117" y="-8" type="qcurve"/>
			<point x="719.55859375" y="-8" type="line"/>
			<point x="665.7023925781" y="371.8901977539" type="line"/>
			<point x="667.8525390625" y="419.2857666016" type="line"/>
			<point x="661.8525390625" y="419.2857666016" type="line"/>
			<point x="648.4271850586" y="349.6875610352" type="line"/>
			<point x="633.9364013672" y="285.8085327148"/>
			<point x="471.9827270508" y="86.8790283203"/>
			<point x="424.4919433594" y="-8" type="qcurve"/>
		</contour>
	</outline>
	<anchor name="bottom" x="787" y="0"/>
	<anchor name="top" x="717" y="1000"/>
</glyph>
<glyph name="x" format="2">
	<unicode hex="0078"/>
	<advance width="930"/>
	<outline>
		<contour>
			<point x="203.5080566406" y="-12" type="qcurve"/>
			<point x="69.6075439453" y="44" type="line"/>
			<point x="84.2212524414" y="128.0232543945" type="line"/>
			<point x="262.9176025391" y="125.0232543945" type="line" smooth="yes"/>
			<point x="297.9123535156" y="123.1278076172"/>
			<point x="306.2276611328" y="186.4510498047"/>
			<point x="330.2080078125" y="216.3455200195" type="qcurve" smooth="yes"/>
			<point x="388.9750976562" y="275.8469238281"/>
			<point x="395.6234741211" y="332.0900878906"/>
			<point x="523.496887207" y="482.0549926758" type="qcurve"/>
			<point x="390.5123291016" y="856.951965332" type="line"/>
			<point x="212.3127441406" y="842.2246704102" type="line"/>
			<point x="217.1763916016" y="923.1115722656" type="line"/>
			<point x="409.7237548828" y="1010.1115722656" type="line"/>
			<point x="516.5574951172" y="991.1115722656" type="line"/>
			<point x="596.7076416016" y="726.352722168" type="line"/>
			<point x="598.9387207031" y="669.1784057617" type="line"/>
			<point x="604.9387207031" y="669.1784057617" type="line"/>
			<point x="628.4940185547" y="736.5098876953" type="line" smooth="yes"/>
			<point x="678.4573364258" y="802.9326782227"/>
			<point x="585.176574707" y="746.3751220703"/>
			<point x="667.9084472656" y="844.0620727539" type="qcurve" smooth="yes"/>
			<point x="734.0235595703" y="931.4471435547"/>
			<point x="893.8072509766" y="1015.1115722656"/>
			<point x="952.850402832" y="1015.1115722656" type="qcurve" smooth="yes"/>
			<point x="1009.1207885742" y="1015.1115722656"/>
			<point x="1060.2483520508" y="959.1115722656"/>
			<point x="1058.2483520508" y="913.1115722656" type="qcurve" smooth="yes"/>
			<point x="1056.2483520508" y="873.1115722656"/>
			<point x="983.0392456055" y="813.1115722656"/>
			<point x="947.0392456055" y="811.1115722656" type="qcurve"/>
			<point x="926.0392456055" y="822.1115722656" type="line"/>
			<point x="924.3996582031" y="850.228515625" type="line" smooth="yes"/>
			<point x="922.0159301758" y="844.7873535156"/>
			<point x="906.3952026367" y="865.4387207031"/>
			<point x="881.4944458008" y="865.4387207031" type="qcurve" smooth="yes"/>
			<point x="858.4678344727" y="865.4387207031"/>
			<point x="764.3999633789" y="778.1690673828"/>
			<point x="715.4830322266" y="708.6335449219" type="qcurve" smooth="yes"/>
			<point x="577.891418457" y="556.6908569336"/>
			<point x="759.3449707031" y="688.7982788086"/>
			<point x="649.90625" y="547.5036010742" type="qcurve"/>
			<point x="794.7680053711" y="124.0004882812" type="line"/>
			<point x="920.2402954102" y="124.0004882812" type="line"/>
			<point x="920.2402954102" y="46" type="line"/>
			<point x="747.8341064453" y="-1.1500854492" type="line"/>
			<point x="648.2696533203" y="16.8499145508" type="line"/>
			<point x="559.7842407227" y="318.7254638672" type="line"/>
			<point x="562.868347168" y="360.3172607422" type="line"/>
			<point x="556.868347168" y="360.3172607422" type="line"/>
			<point x="547.4176025391" y="309.8307495117" type="line"/>
			<point x="512.956237793" y="275.1383666992"/>
			<point x="577.6473388672" y="291.4267578125"/>
			<point x="473.3803100586" y="177.5883789062" type="qcurve" smooth="yes"/>
			<point x="394.0679931641" y="78.0411987305"/>
			<point x="283.5539550781" y="-20.8134765625"/>
		</contour>
	</outline>
	<anchor name="bottom" x="522" y="0"/>
	<anchor name="top" x="522" y="1000"/>
	<anchor name="cy_descender" x="832" y="134"/>
	<anchor name="center" x="432" y="502"/>
</glyph>
<glyph name="y" format="2">
	<unicode hex="0079"/>
	<advance width="942"/>
	<outline>
		<contour>
			<point x="-185.5048217773" y="-435.951171875" type="line"/>
			<point x="-180.5048217773" y="-399.951171875" type="line"/>
			<point x="-57.7813720703" y="-397.951171875" type="line" smooth="yes"/>
			<point x="73.9690551758" y="-395.951171875"/>
			<point x="345.9239501953" y="-107.0526733398"/>
			<point x="390.6734619141" y="-19.0455322266" type="qcurve" smooth="yes"/>
			<point x="395.3928222656" y="0" type="line"/>
			<point x="289.674987793" y="0" type="line"/>
			<point x="246.7634887695" y="290.5665283203"/>
			<point x="183.8135375977" y="700.2246704102"/>
			<point x="158.7719116211" y="847.2246704102" type="qcurve"/>
			<point x="61.9133300781" y="844.2246704102" type="line"/>
			<point x="64.7769775391" y="931.1115722656" type="line"/>
			<point x="219.8629150391" y="1009.1115722656" type="line"/>
			<point x="287.3760986328" y="1009.1115722656" type="line"/>
			<point x="321.3760986328" y="933.1115722656" type="line"/>
			<point x="427.537109375" y="173.0408935547" type="line"/>
			<point x="432.0899658203" y="81.8269042969" type="line"/>
			<point x="438.0899658203" y="81.8269042969" type="line"/>
			<point x="506.6033935547" y="189.6035766602" type="line" smooth="yes"/>
			<point x="704.5694580078" y="454.4646606445"/>
			<point x="753.0496826172" y="724.2987060547"/>
			<point x="753.0496826172" y="814.1922607422" type="qcurve" smooth="yes"/>
			<point x="753.0496826172" y="855.1922607422"/>
			<point x="681.1572265625" y="921.1922607422"/>
			<point x="681.1572265625" y="974.1922607422" type="qcurve" smooth="yes"/>
			<point x="681.1572265625" y="1008.1922607422"/>
			<point x="742.1701660156" y="1061.1922607422"/>
			<point x="791.439453125" y="1061.1922607422" type="qcurve" smooth="yes"/>
			<point x="848.9267578125" y="1061.1922607422"/>
			<point x="932.7791748047" y="994.1922607422"/>
			<point x="932.7791748047" y="925.1922607422" type="qcurve" smooth="yes"/>
			<point x="932.7791748047" y="838.9780883789"/>
			<point x="799.0612792969" y="405.5992431641"/>
			<point x="446.4136962891" y="-17.3522338867" type="qcurve" smooth="yes"/>
			<point x="408.214050293" y="-67.6658935547" type="line" smooth="yes"/>
			<point x="250.8038330078" y="-274.1571655273"/>
			<point x="11.2422485352" y="-474.951171875"/>
			<point x="-146.9668579102" y="-474.951171875" type="qcurve"/>
		</contour>
	</outline>
	<anchor name="bottom" x="782" y="0"/>
	<anchor name="top" x="504" y="1000"/>
</glyph>
<glyph name="z" format="2">
	<unicode hex="007A"/>
	<advance width="614"/>
	<outline>
		<contour>
			<point x="-153.1526489258" y="-1.1997680664" type="line"/>
			<point x="-144.0029296875" y="69.3983764648" type="line"/>
			<point x="-114.5950927734" y="136.1760253906"/>
			<point x="86.6516113281" y="418.0485839844"/>
			<point x="214.5548095703" y="566.373046875" type="qcurve" smooth="yes"/>
			<point x="324.8284301758" y="689.373046875"/>
			<point x="431.4315795898" y="829.1638793945"/>
			<point x="433.9102783203" y="874.072265625" type="qcurve"/>
			<point x="138.7698974609" y="868.1748046875" type="line"/>
			<point x="73.5699462891" y="808.1103515625" type="line"/>
			<point x="-43.4930419922" y="808.1103515625" type="line"/>
			<point x="13.3739013672" y="970.1115722656" type="line"/>
			<point x="70.3739013672" y="1007.1115722656" type="line"/>
			<point x="605.9572753906" y="1000.1115722656" type="line"/>
			<point x="634.0904541016" y="944.8903808594" type="line"/>
			<point x="618.9407348633" y="882.8903808594"/>
			<point x="420.091796875" y="625.19140625"/>
			<point x="299.0899047852" y="488.1373291016" type="qcurve" smooth="yes"/>
			<point x="191.1817626953" y="365.8128662109"/>
			<point x="73.8711547852" y="212.4390258789"/>
			<point x="53.29296875" y="185.1500854492" type="qcurve"/>
			<point x="412.8504638672" y="126.7785644531" type="line"/>
			<point x="489.2015380859" y="186.2917480469" type="line"/>
			<point x="577.3923339844" y="159.2493896484" type="line"/>
			<point x="493.8207397461" y="-5" type="line"/>
			<point x="442.8207397461" y="-24" type="line"/>
			<point x="-40.5533447266" y="67.1557617188" type="line"/>
		</contour>
	</outline>
	<anchor name="bottom" x="443" y="0"/>
	<anchor name="top" x="463" y="1000"/>
	<anchor name="_liga" x="0" y="0"/>
</glyph>
<glyph name="jdotless" format="2">
	<unicode hex="0237"/>
	<advance width="597"/>
	<outline>
		<contour>
			<point x="268.4279785156" y="840.2246704102" type="qcurve"/>
			<point x="172.8195800781" y="824.2246704102" type="line"/>
			<point x="168.6832275391" y="914.1115722656" type="line"/>
			<point x="357.9737548828" y="1012.1115722656" type="line"/>
			<point x="440.8587646484" y="1012.1115722656" type="line"/>
			<point x="466.7308349609" y="903.45703125" type="line"/>
			<point x="409.8874511719" y="768.1115722656" type="line"/>
			<point x="291.921875" y="124.6171875" type="line"/>
			<point x="247.0635375977" y="-150.0004882812"/>
			<point x="166.4625244141" y="-480.119140625"/>
			<point x="33.0556030273" y="-480.119140625" type="qcurve"/>
			<point x="-47.2940673828" y="-441.119140625" type="line"/>
			<point x="-31.5212402344" y="-362.2322387695" type="line"/>
			<point x="-2.8749389648" y="-361.3685913086" type="line" smooth="yes"/>
			<point x="75.1039428711" y="-361.3685913086"/>
			<point x="90.6612548828" y="-133.8614501953"/>
			<point x="139.7951660156" y="130.8676147461" type="qcurve" smooth="yes"/>
			<point x="167.1838378906" y="264.5788574219"/>
			<point x="254.203125" y="749.3270263672"/>
		</contour>
	</outline>
	<anchor name="bottom" x="88" y="-436"/>
	<anchor name="top" x="320" y="1000"/>
	<anchor name="_liga" x="0" y="0"/>
</glyph>
